<?xml version="1.0" encoding="UTF-8" standalone="no"?>
<!DOCTYPE svg PUBLIC "-//W3C//DTD SVG 1.1//EN"
 "http://www.w3.org/Graphics/SVG/1.1/DTD/svg11.dtd">
<!-- Generated by graphviz version 2.43.0 (0)
 -->
<!-- Title: com.tia.bmm.server.admin.Admin.loginAsAdmin Pages: 1 -->
<svg width="316pt" height="88pt"
 viewBox="0.00 0.00 316.00 88.00" xmlns="http://www.w3.org/2000/svg" xmlns:xlink="http://www.w3.org/1999/xlink">
<g id="graph0" class="graph" transform="scale(1 1) rotate(0) translate(4 84)">
<title>com.tia.bmm.server.admin.Admin.loginAsAdmin</title>
<polygon fill="white" stroke="transparent" points="-4,4 -4,-84 312,-84 312,4 -4,4"/>
<!-- Node1 -->
<g id="node1" class="node">
<title>Node1</title>
<g id="a_node1"><a xlink:title=" ">
<polygon fill="#bfbfbf" stroke="black" points="173,-24.5 173,-54.5 308,-54.5 308,-24.5 173,-24.5"/>
<text text-anchor="start" x="181" y="-42.5" font-family="Helvetica,sans-Serif" font-size="10.00">com.tia.bmm.server.admin.</text>
<text text-anchor="middle" x="240.5" y="-31.5" font-family="Helvetica,sans-Serif" font-size="10.00">Admin.loginAsAdmin</text>
</a>
</g>
</g>
<!-- Node2 -->
<g id="node2" class="node">
<title>Node2</title>
<g id="a_node2"><a xlink:href="../../d2/d9f/classcom_1_1tia_1_1bmm_1_1server_1_1main_1_1_main_menu.html#a0b053293418334fff5572487489f3029" target="_top" xlink:title=" ">
<polygon fill="white" stroke="black" points="3.5,-49.5 3.5,-79.5 133.5,-79.5 133.5,-49.5 3.5,-49.5"/>
<text text-anchor="start" x="11.5" y="-67.5" font-family="Helvetica,sans-Serif" font-size="10.00">com.tia.bmm.server.main.</text>
<text text-anchor="middle" x="68.5" y="-56.5" font-family="Helvetica,sans-Serif" font-size="10.00">MainMenu.main</text>
</a>
</g>
</g>
<!-- Node1&#45;&gt;Node2 -->
<g id="edge1" class="edge">
<title>Node1&#45;&gt;Node2</title>
<path fill="none" stroke="midnightblue" d="M162.7,-50.79C152.94,-52.23 143.04,-53.69 133.51,-55.09"/>
<polygon fill="midnightblue" stroke="midnightblue" points="163.42,-54.23 172.8,-49.31 162.4,-47.3 163.42,-54.23"/>
</g>
<!-- Node3 -->
<g id="node3" class="node">
<title>Node3</title>
<g id="a_node3"><a xlink:href="../../d2/d92/classcom_1_1tia_1_1bmm_1_1testing_1_1_admin_test.html#aed1b1770d99e33924435362d6f6afff0" target="_top" xlink:title=" ">
<polygon fill="white" stroke="black" points="0,-0.5 0,-30.5 137,-30.5 137,-0.5 0,-0.5"/>
<text text-anchor="start" x="8" y="-18.5" font-family="Helvetica,sans-Serif" font-size="10.00">com.tia.bmm.testing.Admin</text>
<text text-anchor="middle" x="68.5" y="-7.5" font-family="Helvetica,sans-Serif" font-size="10.00">Test.testLoginAsAdmin</text>
</a>
</g>
</g>
<!-- Node1&#45;&gt;Node3 -->
<g id="edge2" class="edge">
<title>Node1&#45;&gt;Node3</title>
<path fill="none" stroke="midnightblue" d="M162.82,-28.67C154.25,-27.46 145.57,-26.24 137.13,-25.05"/>
<polygon fill="midnightblue" stroke="midnightblue" points="162.41,-32.15 172.8,-30.08 163.39,-25.22 162.41,-32.15"/>
</g>
</g>
</svg>
