<?xml version="1.0" encoding="UTF-8" standalone="no"?>
<!DOCTYPE svg PUBLIC "-//W3C//DTD SVG 1.1//EN"
 "http://www.w3.org/Graphics/SVG/1.1/DTD/svg11.dtd">
<!-- Generated by graphviz version 2.43.0 (0)
 -->
<!-- Title: com.tia.bmm.server.theatre.Theatre.getTheatreName Pages: 1 -->
<svg width="709pt" height="186pt"
 viewBox="0.00 0.00 709.00 186.00" xmlns="http://www.w3.org/2000/svg" xmlns:xlink="http://www.w3.org/1999/xlink">
<g id="graph0" class="graph" transform="scale(1 1) rotate(0) translate(4 182)">
<title>com.tia.bmm.server.theatre.Theatre.getTheatreName</title>
<polygon fill="white" stroke="transparent" points="-4,4 -4,-182 705,-182 705,4 -4,4"/>
<!-- Node1 -->
<g id="node1" class="node">
<title>Node1</title>
<g id="a_node1"><a xlink:title=" ">
<polygon fill="#bfbfbf" stroke="black" points="562,-73.5 562,-103.5 701,-103.5 701,-73.5 562,-73.5"/>
<text text-anchor="start" x="570" y="-91.5" font-family="Helvetica,sans-Serif" font-size="10.00">com.tia.bmm.server.theatre.</text>
<text text-anchor="middle" x="631.5" y="-80.5" font-family="Helvetica,sans-Serif" font-size="10.00">Theatre.getTheatreName</text>
</a>
</g>
</g>
<!-- Node2 -->
<g id="node2" class="node">
<title>Node2</title>
<g id="a_node2"><a xlink:href="../../da/dca/classcom_1_1tia_1_1bmm_1_1server_1_1theatre_1_1_theatre_list.html#a11ed7b410b1ceaed743494db408f2cff" target="_top" xlink:title=" ">
<polygon fill="white" stroke="black" points="354,-147.5 354,-177.5 526,-177.5 526,-147.5 354,-147.5"/>
<text text-anchor="start" x="362" y="-165.5" font-family="Helvetica,sans-Serif" font-size="10.00">com.tia.bmm.server.theatre.</text>
<text text-anchor="middle" x="440" y="-154.5" font-family="Helvetica,sans-Serif" font-size="10.00">TheatreList.displayMoviesInTheatre</text>
</a>
</g>
</g>
<!-- Node1&#45;&gt;Node2 -->
<g id="edge1" class="edge">
<title>Node1&#45;&gt;Node2</title>
<path fill="none" stroke="midnightblue" d="M593.31,-108.21C573.65,-118.13 548.91,-129.86 526,-138.5 517.54,-141.69 508.46,-144.69 499.5,-147.41"/>
<polygon fill="midnightblue" stroke="midnightblue" points="594.93,-111.31 602.25,-103.64 591.75,-105.08 594.93,-111.31"/>
</g>
<!-- Node5 -->
<g id="node5" class="node">
<title>Node5</title>
<g id="a_node5"><a xlink:href="../../da/dca/classcom_1_1tia_1_1bmm_1_1server_1_1theatre_1_1_theatre_list.html#a35e07a87e4d839ea581f760b53bd68d7" target="_top" xlink:title=" ">
<polygon fill="white" stroke="black" points="370.5,-49.5 370.5,-79.5 509.5,-79.5 509.5,-49.5 370.5,-49.5"/>
<text text-anchor="start" x="378.5" y="-67.5" font-family="Helvetica,sans-Serif" font-size="10.00">com.tia.bmm.server.theatre.</text>
<text text-anchor="middle" x="440" y="-56.5" font-family="Helvetica,sans-Serif" font-size="10.00">TheatreList.displayTheatre</text>
</a>
</g>
</g>
<!-- Node1&#45;&gt;Node5 -->
<g id="edge4" class="edge">
<title>Node1&#45;&gt;Node5</title>
<path fill="none" stroke="midnightblue" d="M551.77,-78.53C537.83,-76.76 523.41,-74.94 509.77,-73.21"/>
<polygon fill="midnightblue" stroke="midnightblue" points="551.46,-82.02 561.82,-79.8 552.34,-75.07 551.46,-82.02"/>
</g>
<!-- Node7 -->
<g id="node7" class="node">
<title>Node7</title>
<g id="a_node7"><a xlink:href="../../da/dca/classcom_1_1tia_1_1bmm_1_1server_1_1theatre_1_1_theatre_list.html#a501fbd7ca8bee5c6ce651197c321f3f1" target="_top" xlink:title=" ">
<polygon fill="white" stroke="black" points="366,-98.5 366,-128.5 514,-128.5 514,-98.5 366,-98.5"/>
<text text-anchor="start" x="374" y="-116.5" font-family="Helvetica,sans-Serif" font-size="10.00">com.tia.bmm.server.theatre.</text>
<text text-anchor="middle" x="440" y="-105.5" font-family="Helvetica,sans-Serif" font-size="10.00">TheatreList.displayTheatreList</text>
</a>
</g>
</g>
<!-- Node1&#45;&gt;Node7 -->
<g id="edge7" class="edge">
<title>Node1&#45;&gt;Node7</title>
<path fill="none" stroke="midnightblue" d="M551.54,-98.92C539.19,-100.55 526.46,-102.23 514.24,-103.84"/>
<polygon fill="midnightblue" stroke="midnightblue" points="552.36,-102.34 561.82,-97.56 551.45,-95.4 552.36,-102.34"/>
</g>
<!-- Node8 -->
<g id="node8" class="node">
<title>Node8</title>
<g id="a_node8"><a xlink:href="../../da/d57/classcom_1_1tia_1_1bmm_1_1server_1_1booking_1_1_booking.html#a447864da63969714d2e23e8329af699a" target="_top" xlink:title=" ">
<polygon fill="white" stroke="black" points="368.5,-0.5 368.5,-30.5 511.5,-30.5 511.5,-0.5 368.5,-0.5"/>
<text text-anchor="start" x="376.5" y="-18.5" font-family="Helvetica,sans-Serif" font-size="10.00">com.tia.bmm.server.booking.</text>
<text text-anchor="middle" x="440" y="-7.5" font-family="Helvetica,sans-Serif" font-size="10.00">Booking.handleBooking</text>
</a>
</g>
</g>
<!-- Node1&#45;&gt;Node8 -->
<g id="edge10" class="edge">
<title>Node1&#45;&gt;Node8</title>
<path fill="none" stroke="midnightblue" d="M592.59,-68.89C573.03,-59.25 548.59,-47.92 526,-39.5 517.38,-36.29 508.13,-33.26 499.02,-30.51"/>
<polygon fill="midnightblue" stroke="midnightblue" points="591.26,-72.14 601.77,-73.47 594.38,-65.88 591.26,-72.14"/>
</g>
<!-- Node3 -->
<g id="node3" class="node">
<title>Node3</title>
<g id="a_node3"><a xlink:href="../../da/dca/classcom_1_1tia_1_1bmm_1_1server_1_1theatre_1_1_theatre_list.html#a79cd9edb6f713216ef907c7a1ca00c20" target="_top" xlink:title=" ">
<polygon fill="white" stroke="black" points="166,-137.5 166,-167.5 318,-167.5 318,-137.5 166,-137.5"/>
<text text-anchor="start" x="174" y="-155.5" font-family="Helvetica,sans-Serif" font-size="10.00">com.tia.bmm.server.theatre.</text>
<text text-anchor="middle" x="242" y="-144.5" font-family="Helvetica,sans-Serif" font-size="10.00">TheatreList.addMovieInTheatre</text>
</a>
</g>
</g>
<!-- Node2&#45;&gt;Node3 -->
<g id="edge2" class="edge">
<title>Node2&#45;&gt;Node3</title>
<path fill="none" stroke="midnightblue" d="M343.82,-157.64C335.21,-157.2 326.58,-156.76 318.19,-156.34"/>
<polygon fill="midnightblue" stroke="midnightblue" points="343.72,-161.14 353.89,-158.16 344.08,-154.15 343.72,-161.14"/>
</g>
<!-- Node4 -->
<g id="node4" class="node">
<title>Node4</title>
<g id="a_node4"><a xlink:href="../../d2/d9f/classcom_1_1tia_1_1bmm_1_1server_1_1main_1_1_main_menu.html#a0b053293418334fff5572487489f3029" target="_top" xlink:title=" ">
<polygon fill="white" stroke="black" points="0,-71.5 0,-101.5 130,-101.5 130,-71.5 0,-71.5"/>
<text text-anchor="start" x="8" y="-89.5" font-family="Helvetica,sans-Serif" font-size="10.00">com.tia.bmm.server.main.</text>
<text text-anchor="middle" x="65" y="-78.5" font-family="Helvetica,sans-Serif" font-size="10.00">MainMenu.main</text>
</a>
</g>
</g>
<!-- Node3&#45;&gt;Node4 -->
<g id="edge3" class="edge">
<title>Node3&#45;&gt;Node4</title>
<path fill="none" stroke="midnightblue" d="M191.2,-133.72C164.19,-123.53 131.27,-111.12 105.96,-101.57"/>
<polygon fill="midnightblue" stroke="midnightblue" points="190.26,-137.1 200.85,-137.36 192.73,-130.55 190.26,-137.1"/>
</g>
<!-- Node6 -->
<g id="node6" class="node">
<title>Node6</title>
<g id="a_node6"><a xlink:href="../../d7/d7d/classcom_1_1tia_1_1bmm_1_1server_1_1movie_1_1_movie_list.html#a083de16c94baa39d0cab4aa1102c3983" target="_top" xlink:title=" ">
<polygon fill="white" stroke="black" points="174.5,-49.5 174.5,-79.5 309.5,-79.5 309.5,-49.5 174.5,-49.5"/>
<text text-anchor="start" x="182.5" y="-67.5" font-family="Helvetica,sans-Serif" font-size="10.00">com.tia.bmm.server.movie.</text>
<text text-anchor="middle" x="242" y="-56.5" font-family="Helvetica,sans-Serif" font-size="10.00">MovieList.displayMovieList</text>
</a>
</g>
</g>
<!-- Node5&#45;&gt;Node6 -->
<g id="edge5" class="edge">
<title>Node5&#45;&gt;Node6</title>
<path fill="none" stroke="midnightblue" d="M360.12,-64.5C343.35,-64.5 325.79,-64.5 309.53,-64.5"/>
<polygon fill="midnightblue" stroke="midnightblue" points="360.45,-68 370.45,-64.5 360.45,-61 360.45,-68"/>
</g>
<!-- Node6&#45;&gt;Node4 -->
<g id="edge6" class="edge">
<title>Node6&#45;&gt;Node4</title>
<path fill="none" stroke="midnightblue" d="M164.39,-74.13C152.97,-75.57 141.29,-77.03 130.16,-78.43"/>
<polygon fill="midnightblue" stroke="midnightblue" points="164.86,-77.6 174.34,-72.88 163.98,-70.65 164.86,-77.6"/>
</g>
<!-- Node7&#45;&gt;Node3 -->
<g id="edge8" class="edge">
<title>Node7&#45;&gt;Node3</title>
<path fill="none" stroke="midnightblue" d="M355.8,-130.06C343.29,-132.54 330.46,-135.1 318.13,-137.55"/>
<polygon fill="midnightblue" stroke="midnightblue" points="356.61,-133.46 365.74,-128.08 355.25,-126.6 356.61,-133.46"/>
</g>
<!-- Node7&#45;&gt;Node4 -->
<g id="edge9" class="edge">
<title>Node7&#45;&gt;Node4</title>
<path fill="none" stroke="midnightblue" d="M355.47,-107.45C287.28,-102.52 192.35,-95.65 130.06,-91.14"/>
<polygon fill="midnightblue" stroke="midnightblue" points="355.53,-110.97 365.75,-108.2 356.03,-103.98 355.53,-110.97"/>
</g>
<!-- Node9 -->
<g id="node9" class="node">
<title>Node9</title>
<g id="a_node9"><a xlink:href="../../dc/da0/classcom_1_1tia_1_1bmm_1_1server_1_1booking_1_1_my_server.html#a701d447837f147cf450d6b88edb0a470" target="_top" xlink:title=" ">
<polygon fill="white" stroke="black" points="170.5,-0.5 170.5,-30.5 313.5,-30.5 313.5,-0.5 170.5,-0.5"/>
<text text-anchor="start" x="178.5" y="-18.5" font-family="Helvetica,sans-Serif" font-size="10.00">com.tia.bmm.server.booking.</text>
<text text-anchor="middle" x="242" y="-7.5" font-family="Helvetica,sans-Serif" font-size="10.00">MyServer.chatWithClient</text>
</a>
</g>
</g>
<!-- Node8&#45;&gt;Node9 -->
<g id="edge11" class="edge">
<title>Node8&#45;&gt;Node9</title>
<path fill="none" stroke="midnightblue" d="M358.13,-15.5C343.37,-15.5 328.09,-15.5 313.66,-15.5"/>
<polygon fill="midnightblue" stroke="midnightblue" points="358.24,-19 368.24,-15.5 358.24,-12 358.24,-19"/>
</g>
<!-- Node9&#45;&gt;Node4 -->
<g id="edge12" class="edge">
<title>Node9&#45;&gt;Node4</title>
<path fill="none" stroke="midnightblue" d="M180.9,-33.97C175.83,-35.76 170.81,-37.61 166,-39.5 141.72,-49.04 115.01,-61.71 95.31,-71.49"/>
<polygon fill="midnightblue" stroke="midnightblue" points="182.34,-37.17 190.66,-30.62 180.06,-30.55 182.34,-37.17"/>
</g>
</g>
</svg>
