<?xml version="1.0" encoding="UTF-8" standalone="no"?>
<!DOCTYPE svg PUBLIC "-//W3C//DTD SVG 1.1//EN"
 "http://www.w3.org/Graphics/SVG/1.1/DTD/svg11.dtd">
<!-- Generated by graphviz version 2.43.0 (0)
 -->
<!-- Title: com.tia.bmm.server.user.User.getMobNo Pages: 1 -->
<svg width="478pt" height="88pt"
 viewBox="0.00 0.00 478.00 88.00" xmlns="http://www.w3.org/2000/svg" xmlns:xlink="http://www.w3.org/1999/xlink">
<g id="graph0" class="graph" transform="scale(1 1) rotate(0) translate(4 84)">
<title>com.tia.bmm.server.user.User.getMobNo</title>
<polygon fill="white" stroke="transparent" points="-4,4 -4,-84 474,-84 474,4 -4,4"/>
<!-- Node1 -->
<g id="node1" class="node">
<title>Node1</title>
<g id="a_node1"><a xlink:title=" ">
<polygon fill="#bfbfbf" stroke="black" points="343,-24.5 343,-54.5 470,-54.5 470,-24.5 343,-24.5"/>
<text text-anchor="start" x="351" y="-42.5" font-family="Helvetica,sans-Serif" font-size="10.00">com.tia.bmm.server.user.</text>
<text text-anchor="middle" x="406.5" y="-31.5" font-family="Helvetica,sans-Serif" font-size="10.00">User.getMobNo</text>
</a>
</g>
</g>
<!-- Node2 -->
<g id="node2" class="node">
<title>Node2</title>
<g id="a_node2"><a xlink:href="../../d4/d9e/classcom_1_1tia_1_1bmm_1_1server_1_1user_1_1_user_list.html#a51a97b3d7c0cf809c30f0086d64f807d" target="_top" xlink:title=" ">
<polygon fill="white" stroke="black" points="180,-49.5 180,-79.5 307,-79.5 307,-49.5 180,-49.5"/>
<text text-anchor="start" x="188" y="-67.5" font-family="Helvetica,sans-Serif" font-size="10.00">com.tia.bmm.server.user.</text>
<text text-anchor="middle" x="243.5" y="-56.5" font-family="Helvetica,sans-Serif" font-size="10.00">UserList.displayUsers</text>
</a>
</g>
</g>
<!-- Node1&#45;&gt;Node2 -->
<g id="edge1" class="edge">
<title>Node1&#45;&gt;Node2</title>
<path fill="none" stroke="midnightblue" d="M332.78,-50.79C324.19,-52.13 315.47,-53.48 307.04,-54.79"/>
<polygon fill="midnightblue" stroke="midnightblue" points="333.45,-54.23 342.79,-49.24 332.37,-47.31 333.45,-54.23"/>
</g>
<!-- Node4 -->
<g id="node4" class="node">
<title>Node4</title>
<g id="a_node4"><a xlink:href="../../d4/d9e/classcom_1_1tia_1_1bmm_1_1server_1_1user_1_1_user_list.html#aa3ce11f4105aad1d101b9970a10eec13" target="_top" xlink:title=" ">
<polygon fill="white" stroke="black" points="180,-0.5 180,-30.5 307,-30.5 307,-0.5 180,-0.5"/>
<text text-anchor="start" x="188" y="-18.5" font-family="Helvetica,sans-Serif" font-size="10.00">com.tia.bmm.server.user.</text>
<text text-anchor="middle" x="243.5" y="-7.5" font-family="Helvetica,sans-Serif" font-size="10.00">UserList.loginAsUser</text>
</a>
</g>
</g>
<!-- Node1&#45;&gt;Node4 -->
<g id="edge3" class="edge">
<title>Node1&#45;&gt;Node4</title>
<path fill="none" stroke="midnightblue" d="M332.78,-28.66C324.19,-27.38 315.47,-26.08 307.04,-24.82"/>
<polygon fill="midnightblue" stroke="midnightblue" points="332.39,-32.14 342.79,-30.15 333.42,-25.22 332.39,-32.14"/>
</g>
<!-- Node3 -->
<g id="node3" class="node">
<title>Node3</title>
<g id="a_node3"><a xlink:href="../../d2/d9f/classcom_1_1tia_1_1bmm_1_1server_1_1main_1_1_main_menu.html#a0b053293418334fff5572487489f3029" target="_top" xlink:title=" ">
<polygon fill="white" stroke="black" points="7,-49.5 7,-79.5 137,-79.5 137,-49.5 7,-49.5"/>
<text text-anchor="start" x="15" y="-67.5" font-family="Helvetica,sans-Serif" font-size="10.00">com.tia.bmm.server.main.</text>
<text text-anchor="middle" x="72" y="-56.5" font-family="Helvetica,sans-Serif" font-size="10.00">MainMenu.main</text>
</a>
</g>
</g>
<!-- Node2&#45;&gt;Node3 -->
<g id="edge2" class="edge">
<title>Node2&#45;&gt;Node3</title>
<path fill="none" stroke="midnightblue" d="M169.6,-64.5C158.78,-64.5 147.7,-64.5 137.08,-64.5"/>
<polygon fill="midnightblue" stroke="midnightblue" points="169.87,-68 179.87,-64.5 169.87,-61 169.87,-68"/>
</g>
<!-- Node5 -->
<g id="node5" class="node">
<title>Node5</title>
<g id="a_node5"><a xlink:href="../../d7/df9/classcom_1_1tia_1_1bmm_1_1testing_1_1login_as_user_test.html#a9c6c9ab2aad651440859ac60060e981b" target="_top" xlink:title=" ">
<polygon fill="white" stroke="black" points="0,-0.5 0,-30.5 144,-30.5 144,-0.5 0,-0.5"/>
<text text-anchor="start" x="8" y="-18.5" font-family="Helvetica,sans-Serif" font-size="10.00">com.tia.bmm.testing.login</text>
<text text-anchor="middle" x="72" y="-7.5" font-family="Helvetica,sans-Serif" font-size="10.00">AsUserTest.testLoginAsUser</text>
</a>
</g>
</g>
<!-- Node4&#45;&gt;Node5 -->
<g id="edge4" class="edge">
<title>Node4&#45;&gt;Node5</title>
<path fill="none" stroke="midnightblue" d="M169.68,-15.5C161.25,-15.5 152.65,-15.5 144.24,-15.5"/>
<polygon fill="midnightblue" stroke="midnightblue" points="169.87,-19 179.87,-15.5 169.87,-12 169.87,-19"/>
</g>
</g>
</svg>
