<?xml version="1.0" encoding="UTF-8" standalone="no"?>
<!DOCTYPE svg PUBLIC "-//W3C//DTD SVG 1.1//EN"
 "http://www.w3.org/Graphics/SVG/1.1/DTD/svg11.dtd">
<!-- Generated by graphviz version 2.43.0 (0)
 -->
<!-- Title: com.tia.bmm.server.user.User.getEmailId Pages: 1 -->
<svg width="494pt" height="137pt"
 viewBox="0.00 0.00 494.00 137.00" xmlns="http://www.w3.org/2000/svg" xmlns:xlink="http://www.w3.org/1999/xlink">
<g id="graph0" class="graph" transform="scale(1 1) rotate(0) translate(4 133)">
<title>com.tia.bmm.server.user.User.getEmailId</title>
<polygon fill="white" stroke="transparent" points="-4,4 -4,-133 490,-133 490,4 -4,4"/>
<!-- Node1 -->
<g id="node1" class="node">
<title>Node1</title>
<g id="a_node1"><a xlink:title=" ">
<polygon fill="#bfbfbf" stroke="black" points="359,-49.5 359,-79.5 486,-79.5 486,-49.5 359,-49.5"/>
<text text-anchor="start" x="367" y="-67.5" font-family="Helvetica,sans-Serif" font-size="10.00">com.tia.bmm.server.user.</text>
<text text-anchor="middle" x="422.5" y="-56.5" font-family="Helvetica,sans-Serif" font-size="10.00">User.getEmailId</text>
</a>
</g>
</g>
<!-- Node2 -->
<g id="node2" class="node">
<title>Node2</title>
<g id="a_node2"><a xlink:href="../../dc/da0/classcom_1_1tia_1_1bmm_1_1server_1_1booking_1_1_my_server.html#a701d447837f147cf450d6b88edb0a470" target="_top" xlink:title=" ">
<polygon fill="white" stroke="black" points="180,-98.5 180,-128.5 323,-128.5 323,-98.5 180,-98.5"/>
<text text-anchor="start" x="188" y="-116.5" font-family="Helvetica,sans-Serif" font-size="10.00">com.tia.bmm.server.booking.</text>
<text text-anchor="middle" x="251.5" y="-105.5" font-family="Helvetica,sans-Serif" font-size="10.00">MyServer.chatWithClient</text>
</a>
</g>
</g>
<!-- Node1&#45;&gt;Node2 -->
<g id="edge1" class="edge">
<title>Node1&#45;&gt;Node2</title>
<path fill="none" stroke="midnightblue" d="M359.78,-82.39C341.61,-87.66 321.91,-93.38 304.41,-98.45"/>
<polygon fill="midnightblue" stroke="midnightblue" points="360.79,-85.75 369.42,-79.6 358.84,-79.02 360.79,-85.75"/>
</g>
<!-- Node4 -->
<g id="node4" class="node">
<title>Node4</title>
<g id="a_node4"><a xlink:href="../../d4/d9e/classcom_1_1tia_1_1bmm_1_1server_1_1user_1_1_user_list.html#a51a97b3d7c0cf809c30f0086d64f807d" target="_top" xlink:title=" ">
<polygon fill="white" stroke="black" points="188,-49.5 188,-79.5 315,-79.5 315,-49.5 188,-49.5"/>
<text text-anchor="start" x="196" y="-67.5" font-family="Helvetica,sans-Serif" font-size="10.00">com.tia.bmm.server.user.</text>
<text text-anchor="middle" x="251.5" y="-56.5" font-family="Helvetica,sans-Serif" font-size="10.00">UserList.displayUsers</text>
</a>
</g>
</g>
<!-- Node1&#45;&gt;Node4 -->
<g id="edge3" class="edge">
<title>Node1&#45;&gt;Node4</title>
<path fill="none" stroke="midnightblue" d="M348.49,-64.5C337.4,-64.5 326.04,-64.5 315.2,-64.5"/>
<polygon fill="midnightblue" stroke="midnightblue" points="348.57,-68 358.57,-64.5 348.57,-61 348.57,-68"/>
</g>
<!-- Node5 -->
<g id="node5" class="node">
<title>Node5</title>
<g id="a_node5"><a xlink:href="../../d4/d9e/classcom_1_1tia_1_1bmm_1_1server_1_1user_1_1_user_list.html#aa3ce11f4105aad1d101b9970a10eec13" target="_top" xlink:title=" ">
<polygon fill="white" stroke="black" points="188,-0.5 188,-30.5 315,-30.5 315,-0.5 188,-0.5"/>
<text text-anchor="start" x="196" y="-18.5" font-family="Helvetica,sans-Serif" font-size="10.00">com.tia.bmm.server.user.</text>
<text text-anchor="middle" x="251.5" y="-7.5" font-family="Helvetica,sans-Serif" font-size="10.00">UserList.loginAsUser</text>
</a>
</g>
</g>
<!-- Node1&#45;&gt;Node5 -->
<g id="edge5" class="edge">
<title>Node1&#45;&gt;Node5</title>
<path fill="none" stroke="midnightblue" d="M359.78,-46.61C341.61,-41.34 321.91,-35.62 304.41,-30.55"/>
<polygon fill="midnightblue" stroke="midnightblue" points="358.84,-49.98 369.42,-49.4 360.79,-43.25 358.84,-49.98"/>
</g>
<!-- Node3 -->
<g id="node3" class="node">
<title>Node3</title>
<g id="a_node3"><a xlink:href="../../d2/d9f/classcom_1_1tia_1_1bmm_1_1server_1_1main_1_1_main_menu.html#a0b053293418334fff5572487489f3029" target="_top" xlink:title=" ">
<polygon fill="white" stroke="black" points="7,-73.5 7,-103.5 137,-103.5 137,-73.5 7,-73.5"/>
<text text-anchor="start" x="15" y="-91.5" font-family="Helvetica,sans-Serif" font-size="10.00">com.tia.bmm.server.main.</text>
<text text-anchor="middle" x="72" y="-80.5" font-family="Helvetica,sans-Serif" font-size="10.00">MainMenu.main</text>
</a>
</g>
</g>
<!-- Node2&#45;&gt;Node3 -->
<g id="edge2" class="edge">
<title>Node2&#45;&gt;Node3</title>
<path fill="none" stroke="midnightblue" d="M169.83,-102.14C158.86,-100.59 147.72,-99.02 137.09,-97.53"/>
<polygon fill="midnightblue" stroke="midnightblue" points="169.45,-105.62 179.84,-103.55 170.42,-98.69 169.45,-105.62"/>
</g>
<!-- Node4&#45;&gt;Node3 -->
<g id="edge4" class="edge">
<title>Node4&#45;&gt;Node3</title>
<path fill="none" stroke="midnightblue" d="M177.74,-74.34C164.28,-76.16 150.3,-78.05 137.11,-79.83"/>
<polygon fill="midnightblue" stroke="midnightblue" points="178.48,-77.77 187.92,-72.96 177.54,-70.83 178.48,-77.77"/>
</g>
<!-- Node6 -->
<g id="node6" class="node">
<title>Node6</title>
<g id="a_node6"><a xlink:href="../../d7/df9/classcom_1_1tia_1_1bmm_1_1testing_1_1login_as_user_test.html#a9c6c9ab2aad651440859ac60060e981b" target="_top" xlink:title=" ">
<polygon fill="white" stroke="black" points="0,-0.5 0,-30.5 144,-30.5 144,-0.5 0,-0.5"/>
<text text-anchor="start" x="8" y="-18.5" font-family="Helvetica,sans-Serif" font-size="10.00">com.tia.bmm.testing.login</text>
<text text-anchor="middle" x="72" y="-7.5" font-family="Helvetica,sans-Serif" font-size="10.00">AsUserTest.testLoginAsUser</text>
</a>
</g>
</g>
<!-- Node5&#45;&gt;Node6 -->
<g id="edge6" class="edge">
<title>Node5&#45;&gt;Node6</title>
<path fill="none" stroke="midnightblue" d="M177.81,-15.5C166.68,-15.5 155.2,-15.5 144.1,-15.5"/>
<polygon fill="midnightblue" stroke="midnightblue" points="177.92,-19 187.92,-15.5 177.92,-12 177.92,-19"/>
</g>
</g>
</svg>
