<?xml version="1.0" encoding="UTF-8" standalone="no"?>
<!DOCTYPE svg PUBLIC "-//W3C//DTD SVG 1.1//EN"
 "http://www.w3.org/Graphics/SVG/1.1/DTD/svg11.dtd">
<!-- Generated by graphviz version 2.43.0 (0)
 -->
<!-- Title: com.tia.bmm.server.user.UserList.displayUsers Pages: 1 -->
<svg width="298pt" height="137pt"
 viewBox="0.00 0.00 298.00 137.00" xmlns="http://www.w3.org/2000/svg" xmlns:xlink="http://www.w3.org/1999/xlink">
<g id="graph0" class="graph" transform="scale(1 1) rotate(0) translate(4 133)">
<title>com.tia.bmm.server.user.UserList.displayUsers</title>
<polygon fill="white" stroke="transparent" points="-4,4 -4,-133 294,-133 294,4 -4,4"/>
<!-- Node1 -->
<g id="node1" class="node">
<title>Node1</title>
<g id="a_node1"><a xlink:title=" ">
<polygon fill="#bfbfbf" stroke="black" points="0,-49.5 0,-79.5 127,-79.5 127,-49.5 0,-49.5"/>
<text text-anchor="start" x="8" y="-67.5" font-family="Helvetica,sans-Serif" font-size="10.00">com.tia.bmm.server.user.</text>
<text text-anchor="middle" x="63.5" y="-56.5" font-family="Helvetica,sans-Serif" font-size="10.00">UserList.displayUsers</text>
</a>
</g>
</g>
<!-- Node2 -->
<g id="node2" class="node">
<title>Node2</title>
<g id="a_node2"><a xlink:href="../../d9/d2e/classcom_1_1tia_1_1bmm_1_1server_1_1user_1_1_user.html#a6f53cfb900f83910c007a966bdd618b6" target="_top" xlink:title=" ">
<polygon fill="white" stroke="black" points="163,-98.5 163,-128.5 290,-128.5 290,-98.5 163,-98.5"/>
<text text-anchor="start" x="171" y="-116.5" font-family="Helvetica,sans-Serif" font-size="10.00">com.tia.bmm.server.user.</text>
<text text-anchor="middle" x="226.5" y="-105.5" font-family="Helvetica,sans-Serif" font-size="10.00">User.getEmailId</text>
</a>
</g>
</g>
<!-- Node1&#45;&gt;Node2 -->
<g id="edge1" class="edge">
<title>Node1&#45;&gt;Node2</title>
<path fill="none" stroke="midnightblue" d="M114.12,-79.6C130.57,-84.61 149.05,-90.23 166.16,-95.44"/>
<polygon fill="midnightblue" stroke="midnightblue" points="165.46,-98.89 176.04,-98.45 167.5,-92.19 165.46,-98.89"/>
</g>
<!-- Node3 -->
<g id="node3" class="node">
<title>Node3</title>
<g id="a_node3"><a xlink:href="../../d9/d2e/classcom_1_1tia_1_1bmm_1_1server_1_1user_1_1_user.html#afd7b67a7b3a90763e372d4e1b3286345" target="_top" xlink:title=" ">
<polygon fill="white" stroke="black" points="163,-49.5 163,-79.5 290,-79.5 290,-49.5 163,-49.5"/>
<text text-anchor="start" x="171" y="-67.5" font-family="Helvetica,sans-Serif" font-size="10.00">com.tia.bmm.server.user.</text>
<text text-anchor="middle" x="226.5" y="-56.5" font-family="Helvetica,sans-Serif" font-size="10.00">User.getMobNo</text>
</a>
</g>
</g>
<!-- Node1&#45;&gt;Node3 -->
<g id="edge2" class="edge">
<title>Node1&#45;&gt;Node3</title>
<path fill="none" stroke="midnightblue" d="M127.21,-64.5C135.65,-64.5 144.36,-64.5 152.96,-64.5"/>
<polygon fill="midnightblue" stroke="midnightblue" points="152.96,-68 162.96,-64.5 152.96,-61 152.96,-68"/>
</g>
<!-- Node4 -->
<g id="node4" class="node">
<title>Node4</title>
<g id="a_node4"><a xlink:href="../../d4/d9e/classcom_1_1tia_1_1bmm_1_1server_1_1user_1_1_user_list.html#a66e9eaef6c276b0a39299d918a92b1c1" target="_top" xlink:title=" ">
<polygon fill="white" stroke="black" points="163,-0.5 163,-30.5 290,-30.5 290,-0.5 163,-0.5"/>
<text text-anchor="start" x="171" y="-18.5" font-family="Helvetica,sans-Serif" font-size="10.00">com.tia.bmm.server.user.</text>
<text text-anchor="middle" x="226.5" y="-7.5" font-family="Helvetica,sans-Serif" font-size="10.00">UserList.getUl</text>
</a>
</g>
</g>
<!-- Node1&#45;&gt;Node4 -->
<g id="edge3" class="edge">
<title>Node1&#45;&gt;Node4</title>
<path fill="none" stroke="midnightblue" d="M114.12,-49.4C130.57,-44.39 149.05,-38.77 166.16,-33.56"/>
<polygon fill="midnightblue" stroke="midnightblue" points="167.5,-36.81 176.04,-30.55 165.46,-30.11 167.5,-36.81"/>
</g>
</g>
</svg>
