<?xml version="1.0" encoding="UTF-8" standalone="no"?>
<!DOCTYPE svg PUBLIC "-//W3C//DTD SVG 1.1//EN"
 "http://www.w3.org/Graphics/SVG/1.1/DTD/svg11.dtd">
<!-- Generated by graphviz version 2.43.0 (0)
 -->
<!-- Title: com.tia.bmm.server.main.MainMenu.main Pages: 1 -->
<svg width="892pt" height="957pt"
 viewBox="0.00 0.00 892.00 957.00" xmlns="http://www.w3.org/2000/svg" xmlns:xlink="http://www.w3.org/1999/xlink">
<g id="graph0" class="graph" transform="scale(1 1) rotate(0) translate(4 953)">
<title>com.tia.bmm.server.main.MainMenu.main</title>
<polygon fill="white" stroke="transparent" points="-4,4 -4,-953 888,-953 888,4 -4,4"/>
<!-- Node1 -->
<g id="node1" class="node">
<title>Node1</title>
<g id="a_node1"><a xlink:title=" ">
<polygon fill="#bfbfbf" stroke="black" points="0,-437.5 0,-467.5 130,-467.5 130,-437.5 0,-437.5"/>
<text text-anchor="start" x="8" y="-455.5" font-family="Helvetica,sans-Serif" font-size="10.00">com.tia.bmm.server.main.</text>
<text text-anchor="middle" x="65" y="-444.5" font-family="Helvetica,sans-Serif" font-size="10.00">MainMenu.main</text>
</a>
</g>
</g>
<!-- Node2 -->
<g id="node2" class="node">
<title>Node2</title>
<g id="a_node2"><a xlink:href="../../d7/d7d/classcom_1_1tia_1_1bmm_1_1server_1_1movie_1_1_movie_list.html#aa0f4c3a259c2b50cb6dd86a297826ac8" target="_top" xlink:title=" ">
<polygon fill="white" stroke="black" points="174.5,-798.5 174.5,-828.5 309.5,-828.5 309.5,-798.5 174.5,-798.5"/>
<text text-anchor="start" x="182.5" y="-816.5" font-family="Helvetica,sans-Serif" font-size="10.00">com.tia.bmm.server.movie.</text>
<text text-anchor="middle" x="242" y="-805.5" font-family="Helvetica,sans-Serif" font-size="10.00">MovieList.addMovie</text>
</a>
</g>
</g>
<!-- Node1&#45;&gt;Node2 -->
<g id="edge1" class="edge">
<title>Node1&#45;&gt;Node2</title>
<path fill="none" stroke="midnightblue" d="M65.81,-467.71C65.99,-520.15 73.78,-695.3 166,-789.5 166.94,-790.46 167.92,-791.38 168.94,-792.27"/>
<polygon fill="midnightblue" stroke="midnightblue" points="167.16,-795.31 177.31,-798.37 171.28,-789.65 167.16,-795.31"/>
</g>
<!-- Node3 -->
<g id="node3" class="node">
<title>Node3</title>
<g id="a_node3"><a xlink:href="../../da/dca/classcom_1_1tia_1_1bmm_1_1server_1_1theatre_1_1_theatre_list.html#a79cd9edb6f713216ef907c7a1ca00c20" target="_top" xlink:title=" ">
<polygon fill="white" stroke="black" points="166,-749.5 166,-779.5 318,-779.5 318,-749.5 166,-749.5"/>
<text text-anchor="start" x="174" y="-767.5" font-family="Helvetica,sans-Serif" font-size="10.00">com.tia.bmm.server.theatre.</text>
<text text-anchor="middle" x="242" y="-756.5" font-family="Helvetica,sans-Serif" font-size="10.00">TheatreList.addMovieInTheatre</text>
</a>
</g>
</g>
<!-- Node1&#45;&gt;Node3 -->
<g id="edge2" class="edge">
<title>Node1&#45;&gt;Node3</title>
<path fill="none" stroke="midnightblue" d="M70.42,-467.58C82.1,-506.06 116.36,-610.14 166,-685.5 180.03,-706.81 200.11,-727.6 215.96,-742.5"/>
<polygon fill="midnightblue" stroke="midnightblue" points="213.63,-745.11 223.35,-749.32 218.37,-739.97 213.63,-745.11"/>
</g>
<!-- Node11 -->
<g id="node11" class="node">
<title>Node11</title>
<g id="a_node11"><a xlink:href="../../da/dca/classcom_1_1tia_1_1bmm_1_1server_1_1theatre_1_1_theatre_list.html#a501fbd7ca8bee5c6ce651197c321f3f1" target="_top" xlink:title=" ">
<polygon fill="white" stroke="black" points="366,-700.5 366,-730.5 514,-730.5 514,-700.5 366,-700.5"/>
<text text-anchor="start" x="374" y="-718.5" font-family="Helvetica,sans-Serif" font-size="10.00">com.tia.bmm.server.theatre.</text>
<text text-anchor="middle" x="440" y="-707.5" font-family="Helvetica,sans-Serif" font-size="10.00">TheatreList.displayTheatreList</text>
</a>
</g>
</g>
<!-- Node1&#45;&gt;Node11 -->
<g id="edge51" class="edge">
<title>Node1&#45;&gt;Node11</title>
<path fill="none" stroke="midnightblue" d="M70.27,-467.67C80.71,-501.93 110.76,-585.79 166,-630.5 220.35,-674.49 297.54,-695.8 355.98,-706.08"/>
<polygon fill="midnightblue" stroke="midnightblue" points="355.48,-709.54 365.92,-707.75 356.64,-702.64 355.48,-709.54"/>
</g>
<!-- Node18 -->
<g id="node18" class="node">
<title>Node18</title>
<g id="a_node18"><a xlink:href="../../da/dca/classcom_1_1tia_1_1bmm_1_1server_1_1theatre_1_1_theatre_list.html#a2858d1585f152d003c49aacbbc60c272" target="_top" xlink:title=" ">
<polygon fill="white" stroke="black" points="172.5,-315.5 172.5,-345.5 311.5,-345.5 311.5,-315.5 172.5,-315.5"/>
<text text-anchor="start" x="180.5" y="-333.5" font-family="Helvetica,sans-Serif" font-size="10.00">com.tia.bmm.server.theatre.</text>
<text text-anchor="middle" x="242" y="-322.5" font-family="Helvetica,sans-Serif" font-size="10.00">TheatreList.addTheatre</text>
</a>
</g>
</g>
<!-- Node1&#45;&gt;Node18 -->
<g id="edge20" class="edge">
<title>Node1&#45;&gt;Node18</title>
<path fill="none" stroke="midnightblue" d="M77.95,-437.2C95.23,-416.02 129.21,-377.85 166,-355.5 169.4,-353.43 172.99,-351.52 176.69,-349.74"/>
<polygon fill="midnightblue" stroke="midnightblue" points="178.31,-352.85 186.04,-345.6 175.48,-346.45 178.31,-352.85"/>
</g>
<!-- Node21 -->
<g id="node21" class="node">
<title>Node21</title>
<g id="a_node21"><a xlink:href="../../dc/da0/classcom_1_1tia_1_1bmm_1_1server_1_1booking_1_1_my_server.html#a701d447837f147cf450d6b88edb0a470" target="_top" xlink:title=" ">
<polygon fill="white" stroke="black" points="170.5,-462.5 170.5,-492.5 313.5,-492.5 313.5,-462.5 170.5,-462.5"/>
<text text-anchor="start" x="178.5" y="-480.5" font-family="Helvetica,sans-Serif" font-size="10.00">com.tia.bmm.server.booking.</text>
<text text-anchor="middle" x="242" y="-469.5" font-family="Helvetica,sans-Serif" font-size="10.00">MyServer.chatWithClient</text>
</a>
</g>
</g>
<!-- Node1&#45;&gt;Node21 -->
<g id="edge23" class="edge">
<title>Node1&#45;&gt;Node21</title>
<path fill="none" stroke="midnightblue" d="M130.17,-461.67C139.97,-463.07 150.2,-464.53 160.3,-465.97"/>
<polygon fill="midnightblue" stroke="midnightblue" points="159.95,-469.46 170.34,-467.41 160.94,-462.53 159.95,-469.46"/>
</g>
<!-- Node30 -->
<g id="node30" class="node">
<title>Node30</title>
<g id="a_node30"><a xlink:href="../../d4/d9e/classcom_1_1tia_1_1bmm_1_1server_1_1user_1_1_user_list.html#a80cb042676ca23d3fbd23fa1633c464a" target="_top" xlink:title=" ">
<polygon fill="white" stroke="black" points="178.5,-364.5 178.5,-394.5 305.5,-394.5 305.5,-364.5 178.5,-364.5"/>
<text text-anchor="start" x="186.5" y="-382.5" font-family="Helvetica,sans-Serif" font-size="10.00">com.tia.bmm.server.user.</text>
<text text-anchor="middle" x="242" y="-371.5" font-family="Helvetica,sans-Serif" font-size="10.00">UserList.createUser</text>
</a>
</g>
</g>
<!-- Node1&#45;&gt;Node30 -->
<g id="edge41" class="edge">
<title>Node1&#45;&gt;Node30</title>
<path fill="none" stroke="midnightblue" d="M94.88,-437.44C114.63,-427.45 141.54,-414.4 166,-404.5 171.46,-402.29 177.2,-400.12 182.97,-398.03"/>
<polygon fill="midnightblue" stroke="midnightblue" points="184.39,-401.24 192.66,-394.62 182.07,-394.64 184.39,-401.24"/>
</g>
<!-- Node32 -->
<g id="node32" class="node">
<title>Node32</title>
<g id="a_node32"><a xlink:href="../../d7/d7d/classcom_1_1tia_1_1bmm_1_1server_1_1movie_1_1_movie_list.html#a083de16c94baa39d0cab4aa1102c3983" target="_top" xlink:title=" ">
<polygon fill="white" stroke="black" points="174.5,-590.5 174.5,-620.5 309.5,-620.5 309.5,-590.5 174.5,-590.5"/>
<text text-anchor="start" x="182.5" y="-608.5" font-family="Helvetica,sans-Serif" font-size="10.00">com.tia.bmm.server.movie.</text>
<text text-anchor="middle" x="242" y="-597.5" font-family="Helvetica,sans-Serif" font-size="10.00">MovieList.displayMovieList</text>
</a>
</g>
</g>
<!-- Node1&#45;&gt;Node32 -->
<g id="edge43" class="edge">
<title>Node1&#45;&gt;Node32</title>
<path fill="none" stroke="midnightblue" d="M83.42,-467.73C114.6,-494.99 180.07,-552.23 216.03,-583.67"/>
<polygon fill="midnightblue" stroke="midnightblue" points="213.82,-586.38 223.65,-590.33 218.43,-581.12 213.82,-586.38"/>
</g>
<!-- Node34 -->
<g id="node34" class="node">
<title>Node34</title>
<g id="a_node34"><a xlink:href="../../d4/d9e/classcom_1_1tia_1_1bmm_1_1server_1_1user_1_1_user_list.html#a51a97b3d7c0cf809c30f0086d64f807d" target="_top" xlink:title=" ">
<polygon fill="white" stroke="black" points="178.5,-413.5 178.5,-443.5 305.5,-443.5 305.5,-413.5 178.5,-413.5"/>
<text text-anchor="start" x="186.5" y="-431.5" font-family="Helvetica,sans-Serif" font-size="10.00">com.tia.bmm.server.user.</text>
<text text-anchor="middle" x="242" y="-420.5" font-family="Helvetica,sans-Serif" font-size="10.00">UserList.displayUsers</text>
</a>
</g>
</g>
<!-- Node1&#45;&gt;Node34 -->
<g id="edge52" class="edge">
<title>Node1&#45;&gt;Node34</title>
<path fill="none" stroke="midnightblue" d="M130.17,-443.7C142.56,-442 155.63,-440.21 168.27,-438.47"/>
<polygon fill="midnightblue" stroke="midnightblue" points="168.87,-441.93 178.3,-437.1 167.92,-434.99 168.87,-441.93"/>
</g>
<!-- Node36 -->
<g id="node36" class="node">
<title>Node36</title>
<g id="a_node36"><a xlink:href="../../d6/da5/classcom_1_1tia_1_1bmm_1_1server_1_1admin_1_1_admin.html#a0bf6d89a4c1b5b04811ceb9c1bbe9886" target="_top" xlink:title=" ">
<polygon fill="white" stroke="black" points="174.5,-266.5 174.5,-296.5 309.5,-296.5 309.5,-266.5 174.5,-266.5"/>
<text text-anchor="start" x="182.5" y="-284.5" font-family="Helvetica,sans-Serif" font-size="10.00">com.tia.bmm.server.admin.</text>
<text text-anchor="middle" x="242" y="-273.5" font-family="Helvetica,sans-Serif" font-size="10.00">Admin.loginAsAdmin</text>
</a>
</g>
</g>
<!-- Node1&#45;&gt;Node36 -->
<g id="edge56" class="edge">
<title>Node1&#45;&gt;Node36</title>
<path fill="none" stroke="midnightblue" d="M72.38,-437.27C85.52,-407.72 118.41,-342.38 166,-306.5 168.49,-304.62 171.14,-302.87 173.89,-301.26"/>
<polygon fill="midnightblue" stroke="midnightblue" points="175.72,-304.25 182.96,-296.52 172.47,-298.05 175.72,-304.25"/>
</g>
<!-- Node37 -->
<g id="node37" class="node">
<title>Node37</title>
<g id="a_node37"><a xlink:href="../../da/dca/classcom_1_1tia_1_1bmm_1_1server_1_1theatre_1_1_theatre_list.html#ac848eb6e345b247976208cba415a8d50" target="_top" xlink:title=" ">
<polygon fill="white" stroke="black" points="172.5,-217.5 172.5,-247.5 311.5,-247.5 311.5,-217.5 172.5,-217.5"/>
<text text-anchor="start" x="180.5" y="-235.5" font-family="Helvetica,sans-Serif" font-size="10.00">com.tia.bmm.server.theatre.</text>
<text text-anchor="middle" x="242" y="-224.5" font-family="Helvetica,sans-Serif" font-size="10.00">TheatreList.removeTheatre</text>
</a>
</g>
</g>
<!-- Node1&#45;&gt;Node37 -->
<g id="edge57" class="edge">
<title>Node1&#45;&gt;Node37</title>
<path fill="none" stroke="midnightblue" d="M69.55,-437.36C78.85,-400.95 107.4,-307.81 166,-257.5 167.96,-255.82 170.04,-254.25 172.2,-252.78"/>
<polygon fill="midnightblue" stroke="midnightblue" points="174.1,-255.73 180.94,-247.64 170.54,-249.7 174.1,-255.73"/>
</g>
<!-- Node4 -->
<g id="node4" class="node">
<title>Node4</title>
<g id="a_node4"><a xlink:href="../../da/dca/classcom_1_1tia_1_1bmm_1_1server_1_1theatre_1_1_theatre_list.html#a34a4031767b241e14850626a5b82ae9c" target="_top" xlink:title=" ">
<polygon fill="white" stroke="black" points="355,-918.5 355,-948.5 525,-948.5 525,-918.5 355,-918.5"/>
<text text-anchor="start" x="363" y="-936.5" font-family="Helvetica,sans-Serif" font-size="10.00">com.tia.bmm.server.theatre.</text>
<text text-anchor="middle" x="440" y="-925.5" font-family="Helvetica,sans-Serif" font-size="10.00">TheatreList.checkTheatreIdPresent</text>
</a>
</g>
</g>
<!-- Node3&#45;&gt;Node4 -->
<g id="edge3" class="edge">
<title>Node3&#45;&gt;Node4</title>
<path fill="none" stroke="midnightblue" d="M304.85,-779.5C309.67,-782.29 314.15,-785.59 318,-789.5 355.27,-827.37 317.06,-865.31 354,-903.5 357.58,-907.2 361.64,-910.45 366.01,-913.29"/>
<polygon fill="midnightblue" stroke="midnightblue" points="364.31,-916.35 374.72,-918.29 367.79,-910.28 364.31,-916.35"/>
</g>
<!-- Node5 -->
<g id="node5" class="node">
<title>Node5</title>
<g id="a_node5"><a xlink:href="../../d3/dd3/classcom_1_1tia_1_1bmm_1_1server_1_1movie_1_1_movie.html#a3aa41b12e9b68f28c011ddbbd91916ce" target="_top" xlink:title=" ">
<polygon fill="white" stroke="black" points="566,-798.5 566,-828.5 701,-828.5 701,-798.5 566,-798.5"/>
<text text-anchor="start" x="574" y="-816.5" font-family="Helvetica,sans-Serif" font-size="10.00">com.tia.bmm.server.movie.</text>
<text text-anchor="middle" x="633.5" y="-805.5" font-family="Helvetica,sans-Serif" font-size="10.00">Movie.displayMovie</text>
</a>
</g>
</g>
<!-- Node3&#45;&gt;Node5 -->
<g id="edge4" class="edge">
<title>Node3&#45;&gt;Node5</title>
<path fill="none" stroke="midnightblue" d="M290.92,-779.52C299.99,-782.63 309.34,-786.03 318,-789.5 334.42,-796.09 336.78,-802.41 354,-806.5 420.78,-822.36 499.11,-822.79 555.66,-820.02"/>
<polygon fill="midnightblue" stroke="midnightblue" points="556.16,-823.5 565.96,-819.47 555.78,-816.51 556.16,-823.5"/>
</g>
<!-- Node8 -->
<g id="node8" class="node">
<title>Node8</title>
<g id="a_node8"><a xlink:href="../../da/dca/classcom_1_1tia_1_1bmm_1_1server_1_1theatre_1_1_theatre_list.html#a11ed7b410b1ceaed743494db408f2cff" target="_top" xlink:title=" ">
<polygon fill="white" stroke="black" points="354,-749.5 354,-779.5 526,-779.5 526,-749.5 354,-749.5"/>
<text text-anchor="start" x="362" y="-767.5" font-family="Helvetica,sans-Serif" font-size="10.00">com.tia.bmm.server.theatre.</text>
<text text-anchor="middle" x="440" y="-756.5" font-family="Helvetica,sans-Serif" font-size="10.00">TheatreList.displayMoviesInTheatre</text>
</a>
</g>
</g>
<!-- Node3&#45;&gt;Node8 -->
<g id="edge7" class="edge">
<title>Node3&#45;&gt;Node8</title>
<path fill="none" stroke="midnightblue" d="M318.22,-764.5C326.6,-764.5 335.21,-764.5 343.8,-764.5"/>
<polygon fill="midnightblue" stroke="midnightblue" points="343.85,-768 353.85,-764.5 343.85,-761 343.85,-768"/>
</g>
<!-- Node9 -->
<g id="node9" class="node">
<title>Node9</title>
<g id="a_node9"><a xlink:href="../../d9/ddb/classcom_1_1tia_1_1bmm_1_1server_1_1theatre_1_1_theatre.html#a7d2e896d0907035193e11e53d6ec58eb" target="_top" xlink:title=" ">
<polygon fill="white" stroke="black" points="564,-749.5 564,-779.5 703,-779.5 703,-749.5 564,-749.5"/>
<text text-anchor="start" x="572" y="-767.5" font-family="Helvetica,sans-Serif" font-size="10.00">com.tia.bmm.server.theatre.</text>
<text text-anchor="middle" x="633.5" y="-756.5" font-family="Helvetica,sans-Serif" font-size="10.00">Theatre.getMovies</text>
</a>
</g>
</g>
<!-- Node3&#45;&gt;Node9 -->
<g id="edge19" class="edge">
<title>Node3&#45;&gt;Node9</title>
<path fill="none" stroke="midnightblue" d="M298.49,-779.53C316.1,-783.61 335.74,-787.47 354,-789.5 429.98,-797.95 450.06,-798.29 526,-789.5 540.12,-787.87 555.08,-785.05 569.19,-781.88"/>
<polygon fill="midnightblue" stroke="midnightblue" points="570.35,-785.21 579.29,-779.53 568.76,-778.39 570.35,-785.21"/>
</g>
<!-- Node3&#45;&gt;Node11 -->
<g id="edge11" class="edge">
<title>Node3&#45;&gt;Node11</title>
<path fill="none" stroke="midnightblue" d="M303.14,-749.47C324.02,-744.24 347.61,-738.35 369.21,-732.95"/>
<polygon fill="midnightblue" stroke="midnightblue" points="370.12,-736.33 378.98,-730.51 368.42,-729.54 370.12,-736.33"/>
</g>
<!-- Node6 -->
<g id="node6" class="node">
<title>Node6</title>
<g id="a_node6"><a xlink:href="../../d3/dd3/classcom_1_1tia_1_1bmm_1_1server_1_1movie_1_1_movie.html#ad7a45b31dd418b191289f13e68d45096" target="_top" xlink:title=" ">
<polygon fill="white" stroke="black" points="745,-798.5 745,-828.5 880,-828.5 880,-798.5 745,-798.5"/>
<text text-anchor="start" x="753" y="-816.5" font-family="Helvetica,sans-Serif" font-size="10.00">com.tia.bmm.server.movie.</text>
<text text-anchor="middle" x="812.5" y="-805.5" font-family="Helvetica,sans-Serif" font-size="10.00">Movie.getMovieId</text>
</a>
</g>
</g>
<!-- Node5&#45;&gt;Node6 -->
<g id="edge5" class="edge">
<title>Node5&#45;&gt;Node6</title>
<path fill="none" stroke="midnightblue" d="M701.16,-813.5C712.12,-813.5 723.55,-813.5 734.72,-813.5"/>
<polygon fill="midnightblue" stroke="midnightblue" points="734.9,-817 744.9,-813.5 734.9,-810 734.9,-817"/>
</g>
<!-- Node7 -->
<g id="node7" class="node">
<title>Node7</title>
<g id="a_node7"><a xlink:href="../../d3/dd3/classcom_1_1tia_1_1bmm_1_1server_1_1movie_1_1_movie.html#a6eeb3237fadae77e1fc1d1466d02f5cb" target="_top" xlink:title=" ">
<polygon fill="white" stroke="black" points="745,-656.5 745,-686.5 880,-686.5 880,-656.5 745,-656.5"/>
<text text-anchor="start" x="753" y="-674.5" font-family="Helvetica,sans-Serif" font-size="10.00">com.tia.bmm.server.movie.</text>
<text text-anchor="middle" x="812.5" y="-663.5" font-family="Helvetica,sans-Serif" font-size="10.00">Movie.getMovieName</text>
</a>
</g>
</g>
<!-- Node5&#45;&gt;Node7 -->
<g id="edge6" class="edge">
<title>Node5&#45;&gt;Node7</title>
<path fill="none" stroke="midnightblue" d="M688.23,-798.47C694.1,-795.89 699.82,-792.91 705,-789.5 743.51,-764.14 777.13,-721.61 795.83,-695.13"/>
<polygon fill="midnightblue" stroke="midnightblue" points="798.77,-697.03 801.58,-686.81 793.01,-693.04 798.77,-697.03"/>
</g>
<!-- Node8&#45;&gt;Node5 -->
<g id="edge8" class="edge">
<title>Node8&#45;&gt;Node5</title>
<path fill="none" stroke="midnightblue" d="M499.76,-779.53C520.07,-784.73 543.01,-790.6 564.03,-795.98"/>
<polygon fill="midnightblue" stroke="midnightblue" points="563.3,-799.41 573.85,-798.49 565.03,-792.62 563.3,-799.41"/>
</g>
<!-- Node8&#45;&gt;Node9 -->
<g id="edge9" class="edge">
<title>Node8&#45;&gt;Node9</title>
<path fill="none" stroke="midnightblue" d="M526.11,-764.5C535.25,-764.5 544.53,-764.5 553.6,-764.5"/>
<polygon fill="midnightblue" stroke="midnightblue" points="553.73,-768 563.73,-764.5 553.73,-761 553.73,-768"/>
</g>
<!-- Node10 -->
<g id="node10" class="node">
<title>Node10</title>
<g id="a_node10"><a xlink:href="../../d9/ddb/classcom_1_1tia_1_1bmm_1_1server_1_1theatre_1_1_theatre.html#a079c3bcfad970bde006f602defe49fc6" target="_top" xlink:title=" ">
<polygon fill="white" stroke="black" points="564,-700.5 564,-730.5 703,-730.5 703,-700.5 564,-700.5"/>
<text text-anchor="start" x="572" y="-718.5" font-family="Helvetica,sans-Serif" font-size="10.00">com.tia.bmm.server.theatre.</text>
<text text-anchor="middle" x="633.5" y="-707.5" font-family="Helvetica,sans-Serif" font-size="10.00">Theatre.getTheatreName</text>
</a>
</g>
</g>
<!-- Node8&#45;&gt;Node10 -->
<g id="edge10" class="edge">
<title>Node8&#45;&gt;Node10</title>
<path fill="none" stroke="midnightblue" d="M499.76,-749.47C520.07,-744.27 543.01,-738.4 564.03,-733.02"/>
<polygon fill="midnightblue" stroke="midnightblue" points="565.03,-736.38 573.85,-730.51 563.3,-729.59 565.03,-736.38"/>
</g>
<!-- Node11&#45;&gt;Node10 -->
<g id="edge18" class="edge">
<title>Node11&#45;&gt;Node10</title>
<path fill="none" stroke="midnightblue" d="M514.22,-715.5C527.05,-715.5 540.45,-715.5 553.43,-715.5"/>
<polygon fill="midnightblue" stroke="midnightblue" points="553.73,-719 563.73,-715.5 553.73,-712 553.73,-719"/>
</g>
<!-- Node12 -->
<g id="node12" class="node">
<title>Node12</title>
<g id="a_node12"><a xlink:href="../../d5/da1/classcom_1_1tia_1_1bmm_1_1server_1_1address_1_1_address.html#a07eff711b146256671cc044923b429d3" target="_top" xlink:title=" ">
<polygon fill="white" stroke="black" points="562,-399.5 562,-429.5 705,-429.5 705,-399.5 562,-399.5"/>
<text text-anchor="start" x="570" y="-417.5" font-family="Helvetica,sans-Serif" font-size="10.00">com.tia.bmm.server.address.</text>
<text text-anchor="middle" x="633.5" y="-406.5" font-family="Helvetica,sans-Serif" font-size="10.00">Address.displayAddress</text>
</a>
</g>
</g>
<!-- Node11&#45;&gt;Node12 -->
<g id="edge12" class="edge">
<title>Node11&#45;&gt;Node12</title>
<path fill="none" stroke="midnightblue" d="M469.25,-700.38C487.64,-689.27 510.92,-672.65 526,-652.5 553.8,-615.35 543.53,-597.07 562,-554.5 580.02,-512.96 604.4,-466.28 619.25,-438.69"/>
<polygon fill="midnightblue" stroke="midnightblue" points="622.4,-440.22 624.09,-429.76 616.25,-436.89 622.4,-440.22"/>
</g>
<!-- Node13 -->
<g id="node13" class="node">
<title>Node13</title>
<g id="a_node13"><a xlink:href="../../d5/da1/classcom_1_1tia_1_1bmm_1_1server_1_1address_1_1_address.html#af20527e485b38f9b824da440f9907011" target="_top" xlink:title=" ">
<polygon fill="white" stroke="black" points="741,-192.5 741,-222.5 884,-222.5 884,-192.5 741,-192.5"/>
<text text-anchor="start" x="749" y="-210.5" font-family="Helvetica,sans-Serif" font-size="10.00">com.tia.bmm.server.address.</text>
<text text-anchor="middle" x="812.5" y="-199.5" font-family="Helvetica,sans-Serif" font-size="10.00">Address.getCity</text>
</a>
</g>
</g>
<!-- Node12&#45;&gt;Node13 -->
<g id="edge13" class="edge">
<title>Node12&#45;&gt;Node13</title>
<path fill="none" stroke="midnightblue" d="M694.21,-399.37C698.18,-396.85 701.84,-393.92 705,-390.5 749.16,-342.66 701.8,-300.48 741,-248.5 747.2,-240.28 755.57,-233.42 764.38,-227.81"/>
<polygon fill="midnightblue" stroke="midnightblue" points="766.4,-230.68 773.27,-222.61 762.87,-224.64 766.4,-230.68"/>
</g>
<!-- Node14 -->
<g id="node14" class="node">
<title>Node14</title>
<g id="a_node14"><a xlink:href="../../d5/da1/classcom_1_1tia_1_1bmm_1_1server_1_1address_1_1_address.html#adaaefa14d2da4c3dbf4e0c2b21aaacbb" target="_top" xlink:title=" ">
<polygon fill="white" stroke="black" points="741,-421.5 741,-451.5 884,-451.5 884,-421.5 741,-421.5"/>
<text text-anchor="start" x="749" y="-439.5" font-family="Helvetica,sans-Serif" font-size="10.00">com.tia.bmm.server.address.</text>
<text text-anchor="middle" x="812.5" y="-428.5" font-family="Helvetica,sans-Serif" font-size="10.00">Address.getLandmark</text>
</a>
</g>
</g>
<!-- Node12&#45;&gt;Node14 -->
<g id="edge14" class="edge">
<title>Node12&#45;&gt;Node14</title>
<path fill="none" stroke="midnightblue" d="M705.22,-423.29C713.66,-424.34 722.33,-425.42 730.9,-426.48"/>
<polygon fill="midnightblue" stroke="midnightblue" points="730.54,-429.96 740.89,-427.72 731.4,-423.02 730.54,-429.96"/>
</g>
<!-- Node15 -->
<g id="node15" class="node">
<title>Node15</title>
<g id="a_node15"><a xlink:href="../../d5/da1/classcom_1_1tia_1_1bmm_1_1server_1_1address_1_1_address.html#a2ab8b5db51d4918b3ae586899e9f2966" target="_top" xlink:title=" ">
<polygon fill="white" stroke="black" points="741,-110.5 741,-140.5 884,-140.5 884,-110.5 741,-110.5"/>
<text text-anchor="start" x="749" y="-128.5" font-family="Helvetica,sans-Serif" font-size="10.00">com.tia.bmm.server.address.</text>
<text text-anchor="middle" x="812.5" y="-117.5" font-family="Helvetica,sans-Serif" font-size="10.00">Address.getPinCode</text>
</a>
</g>
</g>
<!-- Node12&#45;&gt;Node15 -->
<g id="edge15" class="edge">
<title>Node12&#45;&gt;Node15</title>
<path fill="none" stroke="midnightblue" d="M694.83,-399.41C698.6,-396.89 702.06,-393.94 705,-390.5 765.69,-319.53 694.01,-264.2 741,-183.5 749.57,-168.78 763.37,-156.2 776.49,-146.55"/>
<polygon fill="midnightblue" stroke="midnightblue" points="778.76,-149.24 784.96,-140.65 774.76,-143.5 778.76,-149.24"/>
</g>
<!-- Node16 -->
<g id="node16" class="node">
<title>Node16</title>
<g id="a_node16"><a xlink:href="../../d5/da1/classcom_1_1tia_1_1bmm_1_1server_1_1address_1_1_address.html#ad2ca9fb2be91212f1e621fa529b62345" target="_top" xlink:title=" ">
<polygon fill="white" stroke="black" points="741,-314.5 741,-344.5 884,-344.5 884,-314.5 741,-314.5"/>
<text text-anchor="start" x="749" y="-332.5" font-family="Helvetica,sans-Serif" font-size="10.00">com.tia.bmm.server.address.</text>
<text text-anchor="middle" x="812.5" y="-321.5" font-family="Helvetica,sans-Serif" font-size="10.00">Address.getState</text>
</a>
</g>
</g>
<!-- Node12&#45;&gt;Node16 -->
<g id="edge16" class="edge">
<title>Node12&#45;&gt;Node16</title>
<path fill="none" stroke="midnightblue" d="M682.76,-399.45C690.3,-396.71 697.93,-393.69 705,-390.5 730.88,-378.81 758.68,-362.76 779.39,-350.06"/>
<polygon fill="midnightblue" stroke="midnightblue" points="781.43,-352.91 788.08,-344.66 777.74,-346.96 781.43,-352.91"/>
</g>
<!-- Node17 -->
<g id="node17" class="node">
<title>Node17</title>
<g id="a_node17"><a xlink:href="../../d5/da1/classcom_1_1tia_1_1bmm_1_1server_1_1address_1_1_address.html#a54c6bb58e93a72e24cbba6a929b3aed3" target="_top" xlink:title=" ">
<polygon fill="white" stroke="black" points="741,-257.5 741,-287.5 884,-287.5 884,-257.5 741,-257.5"/>
<text text-anchor="start" x="749" y="-275.5" font-family="Helvetica,sans-Serif" font-size="10.00">com.tia.bmm.server.address.</text>
<text text-anchor="middle" x="812.5" y="-264.5" font-family="Helvetica,sans-Serif" font-size="10.00">Address.getStreetNo</text>
</a>
</g>
</g>
<!-- Node12&#45;&gt;Node17 -->
<g id="edge17" class="edge">
<title>Node12&#45;&gt;Node17</title>
<path fill="none" stroke="midnightblue" d="M692.63,-399.4C697.1,-396.88 701.31,-393.93 705,-390.5 735.04,-362.56 712.53,-335.04 741,-305.5 745.79,-300.53 751.47,-296.23 757.5,-292.53"/>
<polygon fill="midnightblue" stroke="midnightblue" points="759.47,-295.44 766.52,-287.53 756.08,-289.32 759.47,-295.44"/>
</g>
<!-- Node19 -->
<g id="node19" class="node">
<title>Node19</title>
<g id="a_node19"><a xlink:href="../../d5/da1/classcom_1_1tia_1_1bmm_1_1server_1_1address_1_1_address.html#a30cfc0cc2cbcfe047a637fea1f6e44a1" target="_top" xlink:title=" ">
<polygon fill="white" stroke="black" points="368.5,-143.5 368.5,-173.5 511.5,-173.5 511.5,-143.5 368.5,-143.5"/>
<text text-anchor="start" x="376.5" y="-161.5" font-family="Helvetica,sans-Serif" font-size="10.00">com.tia.bmm.server.address.</text>
<text text-anchor="middle" x="440" y="-150.5" font-family="Helvetica,sans-Serif" font-size="10.00">Address.addAddress</text>
</a>
</g>
</g>
<!-- Node18&#45;&gt;Node19 -->
<g id="edge21" class="edge">
<title>Node18&#45;&gt;Node19</title>
<path fill="none" stroke="midnightblue" d="M301.88,-315.35C307.55,-312.81 313.03,-309.88 318,-306.5 366.7,-273.36 406.03,-215.04 425.58,-182.38"/>
<polygon fill="midnightblue" stroke="midnightblue" points="428.74,-183.9 430.78,-173.5 422.7,-180.36 428.74,-183.9"/>
</g>
<!-- Node20 -->
<g id="node20" class="node">
<title>Node20</title>
<g id="a_node20"><a xlink:href="../../d5/da1/classcom_1_1tia_1_1bmm_1_1server_1_1address_1_1_address.html#ab4968435414b4e23792e69dabbaa72ac" target="_top" xlink:title=" ">
<polygon fill="white" stroke="black" points="562,-0.5 562,-30.5 705,-30.5 705,-0.5 562,-0.5"/>
<text text-anchor="start" x="570" y="-18.5" font-family="Helvetica,sans-Serif" font-size="10.00">com.tia.bmm.server.address.</text>
<text text-anchor="middle" x="633.5" y="-7.5" font-family="Helvetica,sans-Serif" font-size="10.00">Address.Address</text>
</a>
</g>
</g>
<!-- Node19&#45;&gt;Node20 -->
<g id="edge22" class="edge">
<title>Node19&#45;&gt;Node20</title>
<path fill="none" stroke="midnightblue" d="M454.15,-143.17C475.02,-119.6 517.91,-74.18 562,-45.5 567.84,-41.7 574.25,-38.2 580.74,-35.03"/>
<polygon fill="midnightblue" stroke="midnightblue" points="582.65,-38 590.26,-30.64 579.71,-31.65 582.65,-38"/>
</g>
<!-- Node22 -->
<g id="node22" class="node">
<title>Node22</title>
<g id="a_node22"><a xlink:href="../../d9/d2e/classcom_1_1tia_1_1bmm_1_1server_1_1user_1_1_user.html#a6f53cfb900f83910c007a966bdd618b6" target="_top" xlink:title=" ">
<polygon fill="white" stroke="black" points="376.5,-413.5 376.5,-443.5 503.5,-443.5 503.5,-413.5 376.5,-413.5"/>
<text text-anchor="start" x="384.5" y="-431.5" font-family="Helvetica,sans-Serif" font-size="10.00">com.tia.bmm.server.user.</text>
<text text-anchor="middle" x="440" y="-420.5" font-family="Helvetica,sans-Serif" font-size="10.00">User.getEmailId</text>
</a>
</g>
</g>
<!-- Node21&#45;&gt;Node22 -->
<g id="edge24" class="edge">
<title>Node21&#45;&gt;Node22</title>
<path fill="none" stroke="midnightblue" d="M303.14,-462.47C324.02,-457.24 347.61,-451.35 369.21,-445.95"/>
<polygon fill="midnightblue" stroke="midnightblue" points="370.12,-449.33 378.98,-443.51 368.42,-442.54 370.12,-449.33"/>
</g>
<!-- Node23 -->
<g id="node23" class="node">
<title>Node23</title>
<g id="a_node23"><a xlink:href="../../da/d57/classcom_1_1tia_1_1bmm_1_1server_1_1booking_1_1_booking.html#a447864da63969714d2e23e8329af699a" target="_top" xlink:title=" ">
<polygon fill="white" stroke="black" points="368.5,-462.5 368.5,-492.5 511.5,-492.5 511.5,-462.5 368.5,-462.5"/>
<text text-anchor="start" x="376.5" y="-480.5" font-family="Helvetica,sans-Serif" font-size="10.00">com.tia.bmm.server.booking.</text>
<text text-anchor="middle" x="440" y="-469.5" font-family="Helvetica,sans-Serif" font-size="10.00">Booking.handleBooking</text>
</a>
</g>
</g>
<!-- Node21&#45;&gt;Node23 -->
<g id="edge25" class="edge">
<title>Node21&#45;&gt;Node23</title>
<path fill="none" stroke="midnightblue" d="M313.76,-477.5C328.19,-477.5 343.48,-477.5 358.23,-477.5"/>
<polygon fill="midnightblue" stroke="midnightblue" points="358.34,-481 368.34,-477.5 358.34,-474 358.34,-481"/>
</g>
<!-- Node23&#45;&gt;Node6 -->
<g id="edge28" class="edge">
<title>Node23&#45;&gt;Node6</title>
<path fill="none" stroke="midnightblue" d="M492.73,-492.5C569.46,-514.77 704.53,-554.01 705,-554.5 750.21,-601.35 715.93,-636.41 741,-696.5 755.35,-730.89 778.65,-767.15 794.5,-790.02"/>
<polygon fill="midnightblue" stroke="midnightblue" points="791.77,-792.22 800.38,-798.38 797.49,-788.19 791.77,-792.22"/>
</g>
<!-- Node23&#45;&gt;Node7 -->
<g id="edge29" class="edge">
<title>Node23&#45;&gt;Node7</title>
<path fill="none" stroke="midnightblue" d="M511.78,-474.55C568.14,-475.43 646.93,-484.17 705,-520.5 753.76,-551 786.46,-612.85 801.68,-647.17"/>
<polygon fill="midnightblue" stroke="midnightblue" points="798.51,-648.67 805.67,-656.48 804.95,-645.91 798.51,-648.67"/>
</g>
<!-- Node23&#45;&gt;Node9 -->
<g id="edge30" class="edge">
<title>Node23&#45;&gt;Node9</title>
<path fill="none" stroke="midnightblue" d="M453.85,-492.78C472.34,-515.52 506.41,-560.23 526,-603.5 551.97,-660.85 519.1,-694.43 562,-740.5 562.89,-741.46 563.82,-742.38 564.79,-743.26"/>
<polygon fill="midnightblue" stroke="midnightblue" points="562.73,-746.09 572.82,-749.34 566.96,-740.51 562.73,-746.09"/>
</g>
<!-- Node23&#45;&gt;Node10 -->
<g id="edge39" class="edge">
<title>Node23&#45;&gt;Node10</title>
<path fill="none" stroke="midnightblue" d="M451.21,-492.7C478.04,-532.6 549.35,-638.17 562,-652.5 575.17,-667.42 591.67,-682.33 605.4,-693.9"/>
<polygon fill="midnightblue" stroke="midnightblue" points="603.18,-696.61 613.12,-700.3 607.65,-691.22 603.18,-696.61"/>
</g>
<!-- Node23&#45;&gt;Node13 -->
<g id="edge26" class="edge">
<title>Node23&#45;&gt;Node13</title>
<path fill="none" stroke="midnightblue" d="M511.57,-465.31C517,-462.18 521.94,-458.3 526,-453.5 573.78,-397 506.93,-171.91 562,-122.5 609.31,-80.06 645.02,-101.5 705,-122.5 707.38,-123.33 753.96,-160.87 784.72,-185.77"/>
<polygon fill="midnightblue" stroke="midnightblue" points="782.58,-188.54 792.55,-192.11 786.98,-183.1 782.58,-188.54"/>
</g>
<!-- Node23&#45;&gt;Node14 -->
<g id="edge27" class="edge">
<title>Node23&#45;&gt;Node14</title>
<path fill="none" stroke="midnightblue" d="M511.56,-469.69C574.04,-462.78 665.21,-452.69 730.62,-445.45"/>
<polygon fill="midnightblue" stroke="midnightblue" points="731.33,-448.89 740.89,-444.31 730.56,-441.94 731.33,-448.89"/>
</g>
<!-- Node23&#45;&gt;Node15 -->
<g id="edge32" class="edge">
<title>Node23&#45;&gt;Node15</title>
<path fill="none" stroke="midnightblue" d="M511.61,-465.34C517.04,-462.21 521.96,-458.32 526,-453.5 577.65,-391.89 502.39,-147.45 562,-93.5 620.95,-40.15 722.25,-78.87 775.84,-105.69"/>
<polygon fill="midnightblue" stroke="midnightblue" points="774.47,-108.91 784.96,-110.36 777.66,-102.69 774.47,-108.91"/>
</g>
<!-- Node23&#45;&gt;Node16 -->
<g id="edge37" class="edge">
<title>Node23&#45;&gt;Node16</title>
<path fill="none" stroke="midnightblue" d="M511.82,-464.36C517.06,-461.42 521.89,-457.84 526,-453.5 576.4,-400.24 504.78,-338.34 562,-292.5 611.6,-252.76 642.33,-281.92 705,-292.5 726.2,-296.08 748.82,-303.4 767.73,-310.59"/>
<polygon fill="midnightblue" stroke="midnightblue" points="766.67,-313.93 777.26,-314.32 769.22,-307.41 766.67,-313.93"/>
</g>
<!-- Node23&#45;&gt;Node17 -->
<g id="edge38" class="edge">
<title>Node23&#45;&gt;Node17</title>
<path fill="none" stroke="midnightblue" d="M511.51,-465.26C516.95,-462.14 521.91,-458.28 526,-453.5 612.75,-352.15 462.17,-244 562,-155.5 609.56,-113.34 651.38,-121.38 705,-155.5 736.87,-175.78 715.36,-204.76 741,-232.5 748.17,-240.25 757.19,-246.9 766.36,-252.42"/>
<polygon fill="midnightblue" stroke="midnightblue" points="764.71,-255.51 775.14,-257.36 768.15,-249.41 764.71,-255.51"/>
</g>
<!-- Node24 -->
<g id="node24" class="node">
<title>Node24</title>
<g id="a_node24"><a xlink:href="../../d3/dd3/classcom_1_1tia_1_1bmm_1_1server_1_1movie_1_1_movie.html#a4aa8a4b90a046a7c0ec374308270ae41" target="_top" xlink:title=" ">
<polygon fill="white" stroke="black" points="566,-563.5 566,-593.5 701,-593.5 701,-563.5 566,-563.5"/>
<text text-anchor="start" x="574" y="-581.5" font-family="Helvetica,sans-Serif" font-size="10.00">com.tia.bmm.server.movie.</text>
<text text-anchor="middle" x="633.5" y="-570.5" font-family="Helvetica,sans-Serif" font-size="10.00">Movie.getMovieType</text>
</a>
</g>
</g>
<!-- Node23&#45;&gt;Node24 -->
<g id="edge31" class="edge">
<title>Node23&#45;&gt;Node24</title>
<path fill="none" stroke="midnightblue" d="M464.6,-492.57C488.63,-507.62 527.19,-530.97 562,-548.5 569.51,-552.28 577.62,-556.03 585.56,-559.52"/>
<polygon fill="midnightblue" stroke="midnightblue" points="584.2,-562.75 594.77,-563.5 586.98,-556.32 584.2,-562.75"/>
</g>
<!-- Node25 -->
<g id="node25" class="node">
<title>Node25</title>
<g id="a_node25"><a xlink:href="../../d3/dd3/classcom_1_1tia_1_1bmm_1_1server_1_1movie_1_1_movie.html#a14bfec7e511ab221f432983ad47b2846" target="_top" xlink:title=" ">
<polygon fill="white" stroke="black" points="566,-612.5 566,-642.5 701,-642.5 701,-612.5 566,-612.5"/>
<text text-anchor="start" x="574" y="-630.5" font-family="Helvetica,sans-Serif" font-size="10.00">com.tia.bmm.server.movie.</text>
<text text-anchor="middle" x="633.5" y="-619.5" font-family="Helvetica,sans-Serif" font-size="10.00">Movie.getRating</text>
</a>
</g>
</g>
<!-- Node23&#45;&gt;Node25 -->
<g id="edge33" class="edge">
<title>Node23&#45;&gt;Node25</title>
<path fill="none" stroke="midnightblue" d="M454.87,-492.73C483.88,-524.47 549.34,-595.44 562,-603.5 564.59,-605.15 567.3,-606.7 570.1,-608.15"/>
<polygon fill="midnightblue" stroke="midnightblue" points="568.71,-611.36 579.24,-612.47 571.7,-605.04 568.71,-611.36"/>
</g>
<!-- Node26 -->
<g id="node26" class="node">
<title>Node26</title>
<g id="a_node26"><a xlink:href="../../d0/d85/classcom_1_1tia_1_1bmm_1_1server_1_1movie_1_1_seat.html#aab350484da0d222fc9ddc224e998896d" target="_top" xlink:title=" ">
<polygon fill="white" stroke="black" points="566,-213.5 566,-243.5 701,-243.5 701,-213.5 566,-213.5"/>
<text text-anchor="start" x="574" y="-231.5" font-family="Helvetica,sans-Serif" font-size="10.00">com.tia.bmm.server.movie.</text>
<text text-anchor="middle" x="633.5" y="-220.5" font-family="Helvetica,sans-Serif" font-size="10.00">Seat.getSeatNo</text>
</a>
</g>
</g>
<!-- Node23&#45;&gt;Node26 -->
<g id="edge34" class="edge">
<title>Node23&#45;&gt;Node26</title>
<path fill="none" stroke="midnightblue" d="M511.6,-464.76C516.95,-461.74 521.87,-458.03 526,-453.5 585.37,-388.36 506.89,-327.28 562,-258.5 564.84,-254.96 568.17,-251.83 571.82,-249.06"/>
<polygon fill="midnightblue" stroke="midnightblue" points="573.77,-251.97 580.23,-243.57 569.94,-246.11 573.77,-251.97"/>
</g>
<!-- Node27 -->
<g id="node27" class="node">
<title>Node27</title>
<g id="a_node27"><a xlink:href="../../d0/d85/classcom_1_1tia_1_1bmm_1_1server_1_1movie_1_1_seat.html#a555824e84b1308164084d0730a166420" target="_top" xlink:title=" ">
<polygon fill="white" stroke="black" points="566,-164.5 566,-194.5 701,-194.5 701,-164.5 566,-164.5"/>
<text text-anchor="start" x="574" y="-182.5" font-family="Helvetica,sans-Serif" font-size="10.00">com.tia.bmm.server.movie.</text>
<text text-anchor="middle" x="633.5" y="-171.5" font-family="Helvetica,sans-Serif" font-size="10.00">Seat.getSeatStatus</text>
</a>
</g>
</g>
<!-- Node23&#45;&gt;Node27 -->
<g id="edge35" class="edge">
<title>Node23&#45;&gt;Node27</title>
<path fill="none" stroke="midnightblue" d="M511.79,-464.93C517.1,-461.87 521.96,-458.11 526,-453.5 599.7,-369.41 491.1,-290.97 562,-204.5 562.98,-203.31 564.02,-202.17 565.11,-201.09"/>
<polygon fill="midnightblue" stroke="midnightblue" points="567.43,-203.72 573.01,-194.71 563.03,-198.27 567.43,-203.72"/>
</g>
<!-- Node28 -->
<g id="node28" class="node">
<title>Node28</title>
<g id="a_node28"><a xlink:href="../../d3/dd3/classcom_1_1tia_1_1bmm_1_1server_1_1movie_1_1_movie.html#ac3f2a20666529336a10d82af701273c3" target="_top" xlink:title=" ">
<polygon fill="white" stroke="black" points="566,-350.5 566,-380.5 701,-380.5 701,-350.5 566,-350.5"/>
<text text-anchor="start" x="574" y="-368.5" font-family="Helvetica,sans-Serif" font-size="10.00">com.tia.bmm.server.movie.</text>
<text text-anchor="middle" x="633.5" y="-357.5" font-family="Helvetica,sans-Serif" font-size="10.00">Movie.getShowAtFour</text>
</a>
</g>
</g>
<!-- Node23&#45;&gt;Node28 -->
<g id="edge36" class="edge">
<title>Node23&#45;&gt;Node28</title>
<path fill="none" stroke="midnightblue" d="M511.79,-462.32C516.84,-459.82 521.65,-456.9 526,-453.5 551.41,-433.64 537.26,-411.18 562,-390.5 564.01,-388.82 566.13,-387.26 568.35,-385.79"/>
<polygon fill="midnightblue" stroke="midnightblue" points="570.36,-388.67 577.26,-380.63 566.85,-382.61 570.36,-388.67"/>
</g>
<!-- Node29 -->
<g id="node29" class="node">
<title>Node29</title>
<g id="a_node29"><a xlink:href="../../d0/d85/classcom_1_1tia_1_1bmm_1_1server_1_1movie_1_1_seat.html#af0229e29cc08ff967675345e5d26371e" target="_top" xlink:title=" ">
<polygon fill="white" stroke="black" points="566,-301.5 566,-331.5 701,-331.5 701,-301.5 566,-301.5"/>
<text text-anchor="start" x="574" y="-319.5" font-family="Helvetica,sans-Serif" font-size="10.00">com.tia.bmm.server.movie.</text>
<text text-anchor="middle" x="633.5" y="-308.5" font-family="Helvetica,sans-Serif" font-size="10.00">Seat.setSeatStatus</text>
</a>
</g>
</g>
<!-- Node23&#45;&gt;Node29 -->
<g id="edge40" class="edge">
<title>Node23&#45;&gt;Node29</title>
<path fill="none" stroke="midnightblue" d="M511.81,-463.73C516.99,-460.92 521.81,-457.55 526,-453.5 563.63,-417.2 525.58,-379.02 562,-341.5 563.39,-340.07 564.87,-338.72 566.42,-337.44"/>
<polygon fill="midnightblue" stroke="midnightblue" points="568.48,-340.28 574.69,-331.7 564.48,-334.53 568.48,-340.28"/>
</g>
<!-- Node31 -->
<g id="node31" class="node">
<title>Node31</title>
<g id="a_node31"><a xlink:href="../../d4/d9e/classcom_1_1tia_1_1bmm_1_1server_1_1user_1_1_user_list.html#a66e9eaef6c276b0a39299d918a92b1c1" target="_top" xlink:title=" ">
<polygon fill="white" stroke="black" points="376.5,-315.5 376.5,-345.5 503.5,-345.5 503.5,-315.5 376.5,-315.5"/>
<text text-anchor="start" x="384.5" y="-333.5" font-family="Helvetica,sans-Serif" font-size="10.00">com.tia.bmm.server.user.</text>
<text text-anchor="middle" x="440" y="-322.5" font-family="Helvetica,sans-Serif" font-size="10.00">UserList.getUl</text>
</a>
</g>
</g>
<!-- Node30&#45;&gt;Node31 -->
<g id="edge42" class="edge">
<title>Node30&#45;&gt;Node31</title>
<path fill="none" stroke="midnightblue" d="M303.14,-364.47C324.02,-359.24 347.61,-353.35 369.21,-347.95"/>
<polygon fill="midnightblue" stroke="midnightblue" points="370.12,-351.33 378.98,-345.51 368.42,-344.54 370.12,-351.33"/>
</g>
<!-- Node32&#45;&gt;Node6 -->
<g id="edge47" class="edge">
<title>Node32&#45;&gt;Node6</title>
<path fill="none" stroke="midnightblue" d="M251.26,-620.67C274.23,-662.65 338.25,-778.02 354,-789.5 481.31,-882.26 548.53,-856.62 705,-838.5 719.12,-836.87 734.08,-834.05 748.19,-830.88"/>
<polygon fill="midnightblue" stroke="midnightblue" points="749.35,-834.21 758.29,-828.53 747.76,-827.39 749.35,-834.21"/>
</g>
<!-- Node32&#45;&gt;Node7 -->
<g id="edge48" class="edge">
<title>Node32&#45;&gt;Node7</title>
<path fill="none" stroke="midnightblue" d="M303.86,-620.54C308.72,-622.34 313.49,-624.33 318,-626.5 335.78,-635.07 335.35,-646.04 354,-652.5 481.79,-696.77 641.77,-690.59 734.73,-681.47"/>
<polygon fill="midnightblue" stroke="midnightblue" points="735.3,-684.93 744.9,-680.43 734.59,-677.96 735.3,-684.93"/>
</g>
<!-- Node32&#45;&gt;Node24 -->
<g id="edge49" class="edge">
<title>Node32&#45;&gt;Node24</title>
<path fill="none" stroke="midnightblue" d="M309.56,-597.71C324.19,-596.17 339.61,-594.66 354,-593.5 422.04,-587.99 499.6,-584 555.56,-581.53"/>
<polygon fill="midnightblue" stroke="midnightblue" points="555.91,-585.02 565.75,-581.08 555.61,-578.02 555.91,-585.02"/>
</g>
<!-- Node32&#45;&gt;Node25 -->
<g id="edge50" class="edge">
<title>Node32&#45;&gt;Node25</title>
<path fill="none" stroke="midnightblue" d="M309.56,-600.63C367.05,-597.46 452.26,-595.29 526,-603.5 539.21,-604.97 553.17,-607.44 566.49,-610.24"/>
<polygon fill="midnightblue" stroke="midnightblue" points="566,-613.72 576.52,-612.44 567.5,-606.88 566,-613.72"/>
</g>
<!-- Node33 -->
<g id="node33" class="node">
<title>Node33</title>
<g id="a_node33"><a xlink:href="../../da/dca/classcom_1_1tia_1_1bmm_1_1server_1_1theatre_1_1_theatre_list.html#a35e07a87e4d839ea581f760b53bd68d7" target="_top" xlink:title=" ">
<polygon fill="white" stroke="black" points="370.5,-612.5 370.5,-642.5 509.5,-642.5 509.5,-612.5 370.5,-612.5"/>
<text text-anchor="start" x="378.5" y="-630.5" font-family="Helvetica,sans-Serif" font-size="10.00">com.tia.bmm.server.theatre.</text>
<text text-anchor="middle" x="440" y="-619.5" font-family="Helvetica,sans-Serif" font-size="10.00">TheatreList.displayTheatre</text>
</a>
</g>
</g>
<!-- Node32&#45;&gt;Node33 -->
<g id="edge44" class="edge">
<title>Node32&#45;&gt;Node33</title>
<path fill="none" stroke="midnightblue" d="M309.63,-612.98C325.81,-614.79 343.25,-616.75 359.94,-618.63"/>
<polygon fill="midnightblue" stroke="midnightblue" points="359.89,-622.14 370.22,-619.78 360.67,-615.19 359.89,-622.14"/>
</g>
<!-- Node33&#45;&gt;Node10 -->
<g id="edge46" class="edge">
<title>Node33&#45;&gt;Node10</title>
<path fill="none" stroke="midnightblue" d="M473.92,-642.63C506.08,-657.41 555.17,-679.96 590.21,-696.06"/>
<polygon fill="midnightblue" stroke="midnightblue" points="589.14,-699.43 599.69,-700.42 592.06,-693.07 589.14,-699.43"/>
</g>
<!-- Node33&#45;&gt;Node12 -->
<g id="edge45" class="edge">
<title>Node33&#45;&gt;Node12</title>
<path fill="none" stroke="midnightblue" d="M454.77,-612.18C488.04,-575.18 572.89,-480.8 612.09,-437.2"/>
<polygon fill="midnightblue" stroke="midnightblue" points="614.77,-439.46 618.85,-429.68 609.56,-434.78 614.77,-439.46"/>
</g>
<!-- Node34&#45;&gt;Node22 -->
<g id="edge53" class="edge">
<title>Node34&#45;&gt;Node22</title>
<path fill="none" stroke="midnightblue" d="M305.55,-428.5C324.83,-428.5 346.21,-428.5 366.11,-428.5"/>
<polygon fill="midnightblue" stroke="midnightblue" points="366.37,-432 376.37,-428.5 366.37,-425 366.37,-432"/>
</g>
<!-- Node34&#45;&gt;Node31 -->
<g id="edge55" class="edge">
<title>Node34&#45;&gt;Node31</title>
<path fill="none" stroke="midnightblue" d="M302.45,-413.43C307.94,-410.89 313.23,-407.93 318,-404.5 339.94,-388.72 331.88,-371.02 354,-355.5 358.14,-352.59 362.63,-350.02 367.29,-347.75"/>
<polygon fill="midnightblue" stroke="midnightblue" points="368.7,-350.95 376.45,-343.72 365.89,-344.54 368.7,-350.95"/>
</g>
<!-- Node35 -->
<g id="node35" class="node">
<title>Node35</title>
<g id="a_node35"><a xlink:href="../../d9/d2e/classcom_1_1tia_1_1bmm_1_1server_1_1user_1_1_user.html#afd7b67a7b3a90763e372d4e1b3286345" target="_top" xlink:title=" ">
<polygon fill="white" stroke="black" points="376.5,-364.5 376.5,-394.5 503.5,-394.5 503.5,-364.5 376.5,-364.5"/>
<text text-anchor="start" x="384.5" y="-382.5" font-family="Helvetica,sans-Serif" font-size="10.00">com.tia.bmm.server.user.</text>
<text text-anchor="middle" x="440" y="-371.5" font-family="Helvetica,sans-Serif" font-size="10.00">User.getMobNo</text>
</a>
</g>
</g>
<!-- Node34&#45;&gt;Node35 -->
<g id="edge54" class="edge">
<title>Node34&#45;&gt;Node35</title>
<path fill="none" stroke="midnightblue" d="M303.14,-413.47C324.02,-408.24 347.61,-402.35 369.21,-396.95"/>
<polygon fill="midnightblue" stroke="midnightblue" points="370.12,-400.33 378.98,-394.51 368.42,-393.54 370.12,-400.33"/>
</g>
</g>
</svg>
