<?xml version="1.0" encoding="UTF-8" standalone="no"?>
<!DOCTYPE svg PUBLIC "-//W3C//DTD SVG 1.1//EN"
 "http://www.w3.org/Graphics/SVG/1.1/DTD/svg11.dtd">
<!-- Generated by graphviz version 2.43.0 (0)
 -->
<!-- Title: com.tia.bmm.server.address.Address.getPinCode Pages: 1 -->
<svg width="868pt" height="176pt"
 viewBox="0.00 0.00 868.00 176.00" xmlns="http://www.w3.org/2000/svg" xmlns:xlink="http://www.w3.org/1999/xlink">
<g id="graph0" class="graph" transform="scale(1 1) rotate(0) translate(4 172)">
<title>com.tia.bmm.server.address.Address.getPinCode</title>
<polygon fill="white" stroke="transparent" points="-4,4 -4,-172 864,-172 864,4 -4,4"/>
<!-- Node1 -->
<g id="node1" class="node">
<title>Node1</title>
<g id="a_node1"><a xlink:title=" ">
<polygon fill="#bfbfbf" stroke="black" points="717,-34.5 717,-64.5 860,-64.5 860,-34.5 717,-34.5"/>
<text text-anchor="start" x="725" y="-52.5" font-family="Helvetica,sans-Serif" font-size="10.00">com.tia.bmm.server.address.</text>
<text text-anchor="middle" x="788.5" y="-41.5" font-family="Helvetica,sans-Serif" font-size="10.00">Address.getPinCode</text>
</a>
</g>
</g>
<!-- Node2 -->
<g id="node2" class="node">
<title>Node2</title>
<g id="a_node2"><a xlink:href="../../d5/da1/classcom_1_1tia_1_1bmm_1_1server_1_1address_1_1_address.html#a07eff711b146256671cc044923b429d3" target="_top" xlink:title=" ">
<polygon fill="white" stroke="black" points="538,-59.5 538,-89.5 681,-89.5 681,-59.5 538,-59.5"/>
<text text-anchor="start" x="546" y="-77.5" font-family="Helvetica,sans-Serif" font-size="10.00">com.tia.bmm.server.address.</text>
<text text-anchor="middle" x="609.5" y="-66.5" font-family="Helvetica,sans-Serif" font-size="10.00">Address.displayAddress</text>
</a>
</g>
</g>
<!-- Node1&#45;&gt;Node2 -->
<g id="edge1" class="edge">
<title>Node1&#45;&gt;Node2</title>
<path fill="none" stroke="midnightblue" d="M706.79,-60.9C698.22,-62.11 689.55,-63.34 681.11,-64.53"/>
<polygon fill="midnightblue" stroke="midnightblue" points="707.37,-64.35 716.78,-59.49 706.39,-57.42 707.37,-64.35"/>
</g>
<!-- Node8 -->
<g id="node8" class="node">
<title>Node8</title>
<g id="a_node8"><a xlink:href="../../da/d57/classcom_1_1tia_1_1bmm_1_1server_1_1booking_1_1_booking.html#a447864da63969714d2e23e8329af699a" target="_top" xlink:title=" ">
<polygon fill="white" stroke="black" points="538,-10.5 538,-40.5 681,-40.5 681,-10.5 538,-10.5"/>
<text text-anchor="start" x="546" y="-28.5" font-family="Helvetica,sans-Serif" font-size="10.00">com.tia.bmm.server.booking.</text>
<text text-anchor="middle" x="609.5" y="-17.5" font-family="Helvetica,sans-Serif" font-size="10.00">Booking.handleBooking</text>
</a>
</g>
</g>
<!-- Node1&#45;&gt;Node8 -->
<g id="edge9" class="edge">
<title>Node1&#45;&gt;Node8</title>
<path fill="none" stroke="midnightblue" d="M706.79,-38.56C698.22,-37.39 689.55,-36.22 681.11,-35.07"/>
<polygon fill="midnightblue" stroke="midnightblue" points="706.4,-42.04 716.78,-39.91 707.34,-35.1 706.4,-42.04"/>
</g>
<!-- Node3 -->
<g id="node3" class="node">
<title>Node3</title>
<g id="a_node3"><a xlink:href="../../da/dca/classcom_1_1tia_1_1bmm_1_1server_1_1theatre_1_1_theatre_list.html#a35e07a87e4d839ea581f760b53bd68d7" target="_top" xlink:title=" ">
<polygon fill="white" stroke="black" points="358.5,-127.5 358.5,-157.5 497.5,-157.5 497.5,-127.5 358.5,-127.5"/>
<text text-anchor="start" x="366.5" y="-145.5" font-family="Helvetica,sans-Serif" font-size="10.00">com.tia.bmm.server.theatre.</text>
<text text-anchor="middle" x="428" y="-134.5" font-family="Helvetica,sans-Serif" font-size="10.00">TheatreList.displayTheatre</text>
</a>
</g>
</g>
<!-- Node2&#45;&gt;Node3 -->
<g id="edge2" class="edge">
<title>Node2&#45;&gt;Node3</title>
<path fill="none" stroke="midnightblue" d="M559.29,-93.14C530.81,-103.93 495.43,-117.34 468.73,-127.45"/>
<polygon fill="midnightblue" stroke="midnightblue" points="560.55,-96.41 568.66,-89.59 558.07,-89.86 560.55,-96.41"/>
</g>
<!-- Node6 -->
<g id="node6" class="node">
<title>Node6</title>
<g id="a_node6"><a xlink:href="../../da/dca/classcom_1_1tia_1_1bmm_1_1server_1_1theatre_1_1_theatre_list.html#a501fbd7ca8bee5c6ce651197c321f3f1" target="_top" xlink:title=" ">
<polygon fill="white" stroke="black" points="354,-59.5 354,-89.5 502,-89.5 502,-59.5 354,-59.5"/>
<text text-anchor="start" x="362" y="-77.5" font-family="Helvetica,sans-Serif" font-size="10.00">com.tia.bmm.server.theatre.</text>
<text text-anchor="middle" x="428" y="-66.5" font-family="Helvetica,sans-Serif" font-size="10.00">TheatreList.displayTheatreList</text>
</a>
</g>
</g>
<!-- Node2&#45;&gt;Node6 -->
<g id="edge5" class="edge">
<title>Node2&#45;&gt;Node6</title>
<path fill="none" stroke="midnightblue" d="M527.6,-74.5C519.16,-74.5 510.62,-74.5 502.28,-74.5"/>
<polygon fill="midnightblue" stroke="midnightblue" points="527.81,-78 537.81,-74.5 527.81,-71 527.81,-78"/>
</g>
<!-- Node4 -->
<g id="node4" class="node">
<title>Node4</title>
<g id="a_node4"><a xlink:href="../../d7/d7d/classcom_1_1tia_1_1bmm_1_1server_1_1movie_1_1_movie_list.html#a083de16c94baa39d0cab4aa1102c3983" target="_top" xlink:title=" ">
<polygon fill="white" stroke="black" points="174.5,-137.5 174.5,-167.5 309.5,-167.5 309.5,-137.5 174.5,-137.5"/>
<text text-anchor="start" x="182.5" y="-155.5" font-family="Helvetica,sans-Serif" font-size="10.00">com.tia.bmm.server.movie.</text>
<text text-anchor="middle" x="242" y="-144.5" font-family="Helvetica,sans-Serif" font-size="10.00">MovieList.displayMovieList</text>
</a>
</g>
</g>
<!-- Node3&#45;&gt;Node4 -->
<g id="edge3" class="edge">
<title>Node3&#45;&gt;Node4</title>
<path fill="none" stroke="midnightblue" d="M348.28,-146.78C335.44,-147.48 322.25,-148.19 309.74,-148.87"/>
<polygon fill="midnightblue" stroke="midnightblue" points="348.69,-150.26 358.49,-146.22 348.31,-143.27 348.69,-150.26"/>
</g>
<!-- Node5 -->
<g id="node5" class="node">
<title>Node5</title>
<g id="a_node5"><a xlink:href="../../d2/d9f/classcom_1_1tia_1_1bmm_1_1server_1_1main_1_1_main_menu.html#a0b053293418334fff5572487489f3029" target="_top" xlink:title=" ">
<polygon fill="white" stroke="black" points="0,-71.5 0,-101.5 130,-101.5 130,-71.5 0,-71.5"/>
<text text-anchor="start" x="8" y="-89.5" font-family="Helvetica,sans-Serif" font-size="10.00">com.tia.bmm.server.main.</text>
<text text-anchor="middle" x="65" y="-78.5" font-family="Helvetica,sans-Serif" font-size="10.00">MainMenu.main</text>
</a>
</g>
</g>
<!-- Node4&#45;&gt;Node5 -->
<g id="edge4" class="edge">
<title>Node4&#45;&gt;Node5</title>
<path fill="none" stroke="midnightblue" d="M191.2,-133.72C164.19,-123.53 131.27,-111.12 105.96,-101.57"/>
<polygon fill="midnightblue" stroke="midnightblue" points="190.26,-137.1 200.85,-137.36 192.73,-130.55 190.26,-137.1"/>
</g>
<!-- Node6&#45;&gt;Node5 -->
<g id="edge8" class="edge">
<title>Node6&#45;&gt;Node5</title>
<path fill="none" stroke="midnightblue" d="M343.71,-87.15C335.05,-88.11 326.36,-88.93 318,-89.5 250.6,-94.12 233.55,-90.51 166,-89.5 154.36,-89.33 141.97,-89.04 130.01,-88.71"/>
<polygon fill="midnightblue" stroke="midnightblue" points="344.33,-90.6 353.85,-85.97 343.51,-83.65 344.33,-90.6"/>
</g>
<!-- Node7 -->
<g id="node7" class="node">
<title>Node7</title>
<g id="a_node7"><a xlink:href="../../da/dca/classcom_1_1tia_1_1bmm_1_1server_1_1theatre_1_1_theatre_list.html#a79cd9edb6f713216ef907c7a1ca00c20" target="_top" xlink:title=" ">
<polygon fill="white" stroke="black" points="166,-49.5 166,-79.5 318,-79.5 318,-49.5 166,-49.5"/>
<text text-anchor="start" x="174" y="-67.5" font-family="Helvetica,sans-Serif" font-size="10.00">com.tia.bmm.server.theatre.</text>
<text text-anchor="middle" x="242" y="-56.5" font-family="Helvetica,sans-Serif" font-size="10.00">TheatreList.addMovieInTheatre</text>
</a>
</g>
</g>
<!-- Node6&#45;&gt;Node7 -->
<g id="edge6" class="edge">
<title>Node6&#45;&gt;Node7</title>
<path fill="none" stroke="midnightblue" d="M343.49,-69.96C335.03,-69.5 326.47,-69.04 318.11,-68.58"/>
<polygon fill="midnightblue" stroke="midnightblue" points="343.57,-73.47 353.75,-70.52 343.95,-66.48 343.57,-73.47"/>
</g>
<!-- Node7&#45;&gt;Node5 -->
<g id="edge7" class="edge">
<title>Node7&#45;&gt;Node5</title>
<path fill="none" stroke="midnightblue" d="M155.71,-75.22C147.11,-76.3 138.49,-77.39 130.17,-78.43"/>
<polygon fill="midnightblue" stroke="midnightblue" points="156.28,-78.68 165.77,-73.96 155.41,-71.73 156.28,-78.68"/>
</g>
<!-- Node9 -->
<g id="node9" class="node">
<title>Node9</title>
<g id="a_node9"><a xlink:href="../../dc/da0/classcom_1_1tia_1_1bmm_1_1server_1_1booking_1_1_my_server.html#a701d447837f147cf450d6b88edb0a470" target="_top" xlink:title=" ">
<polygon fill="white" stroke="black" points="170.5,-0.5 170.5,-30.5 313.5,-30.5 313.5,-0.5 170.5,-0.5"/>
<text text-anchor="start" x="178.5" y="-18.5" font-family="Helvetica,sans-Serif" font-size="10.00">com.tia.bmm.server.booking.</text>
<text text-anchor="middle" x="242" y="-7.5" font-family="Helvetica,sans-Serif" font-size="10.00">MyServer.chatWithClient</text>
</a>
</g>
</g>
<!-- Node8&#45;&gt;Node9 -->
<g id="edge10" class="edge">
<title>Node8&#45;&gt;Node9</title>
<path fill="none" stroke="midnightblue" d="M527.53,-23.28C463.48,-21.53 374.93,-19.11 313.71,-17.43"/>
<polygon fill="midnightblue" stroke="midnightblue" points="527.5,-26.79 537.59,-23.56 527.69,-19.79 527.5,-26.79"/>
</g>
<!-- Node9&#45;&gt;Node5 -->
<g id="edge11" class="edge">
<title>Node9&#45;&gt;Node5</title>
<path fill="none" stroke="midnightblue" d="M180.9,-33.97C175.83,-35.76 170.81,-37.61 166,-39.5 141.72,-49.04 115.01,-61.71 95.31,-71.49"/>
<polygon fill="midnightblue" stroke="midnightblue" points="182.34,-37.17 190.66,-30.62 180.06,-30.55 182.34,-37.17"/>
</g>
</g>
</svg>
