<?xml version="1.0" encoding="UTF-8" standalone="no"?>
<!DOCTYPE svg PUBLIC "-//W3C//DTD SVG 1.1//EN"
 "http://www.w3.org/Graphics/SVG/1.1/DTD/svg11.dtd">
<!-- Generated by graphviz version 2.43.0 (0)
 -->
<!-- Title: com.tia.bmm.server.movie.Movie.getRating Pages: 1 -->
<!--zoomable 88 -->
<svg id="main" version="1.1" xmlns="http://www.w3.org/2000/svg" xmlns:xlink="http://www.w3.org/1999/xlink" xml:space="preserve" onload="init(evt)">
<style type="text/css"><![CDATA[
.edge:hover path { stroke: red; }
.edge:hover polygon { stroke: red; fill: red; }
]]></style>
<script type="text/javascript"><![CDATA[
var edges = document.getElementsByTagName('g');
if (edges && edges.length) {
  for (var i=0;i<edges.length;i++) {
    if (edges[i].id.substr(0,4)=='edge') {
      edges[i].setAttribute('class','edge');
    }
  }
}
]]></script>
        <defs>
                <circle id="rim" cx="0" cy="0" r="7"/>
                <circle id="rim2" cx="0" cy="0" r="3.5"/>
                <g id="zoomPlus">
                        <use xlink:href="#rim" fill="#404040">
                                <set attributeName="fill" to="#808080" begin="zoomplus.mouseover" end="zoomplus.mouseout"/>
                        </use>
                        <path d="M-4,0h8M0,-4v8" fill="none" stroke="white" stroke-width="1.5" pointer-events="none"/>
                </g>
                <g id="zoomMin">
                        <use xlink:href="#rim" fill="#404040">
                                <set attributeName="fill" to="#808080" begin="zoomminus.mouseover" end="zoomminus.mouseout"/>
                        </use>
                        <path d="M-4,0h8" fill="none" stroke="white" stroke-width="1.5" pointer-events="none"/>
                </g>
                <g id="dirArrow">
                        <path fill="none" stroke="white" stroke-width="1.5" d="M0,-3.0v7 M-2.5,-0.5L0,-3.0L2.5,-0.5"/>
                </g>
               <g id="resetDef">
                       <use xlink:href="#rim2" fill="#404040">
                               <set attributeName="fill" to="#808080" begin="reset.mouseover" end="reset.mouseout"/>
                       </use>
               </g>
        </defs>

<script type="text/javascript">
var viewWidth = 667;
var viewHeight = 88;
var sectionId = 'dynsection-7';
</script>
<script xlink:href="../../svgpan.js"/>
<svg id="graph" class="graph">
<g id="viewport">
<title>com.tia.bmm.server.movie.Movie.getRating</title>
<polygon fill="white" stroke="transparent" points="-4,4 -4,-84 663,-84 663,4 -4,4"/>
<!-- Node1 -->
<g id="node1" class="node">
<title>Node1</title>
<g id="a_node1"><a xlink:title=" ">
<polygon fill="#bfbfbf" stroke="black" points="524,-24.5 524,-54.5 659,-54.5 659,-24.5 524,-24.5"/>
<text text-anchor="start" x="532" y="-42.5" font-family="Helvetica,sans-Serif" font-size="10.00">com.tia.bmm.server.movie.</text>
<text text-anchor="middle" x="591.5" y="-31.5" font-family="Helvetica,sans-Serif" font-size="10.00">Movie.getRating</text>
</a>
</g>
</g>
<!-- Node2 -->
<g id="node2" class="node">
<title>Node2</title>
<g id="a_node2"><a xlink:href="../../d7/d7d/classcom_1_1tia_1_1bmm_1_1server_1_1movie_1_1_movie_list.html#a083de16c94baa39d0cab4aa1102c3983" target="_top" xlink:title=" ">
<polygon fill="white" stroke="black" points="170,-49.5 170,-79.5 305,-79.5 305,-49.5 170,-49.5"/>
<text text-anchor="start" x="178" y="-67.5" font-family="Helvetica,sans-Serif" font-size="10.00">com.tia.bmm.server.movie.</text>
<text text-anchor="middle" x="237.5" y="-56.5" font-family="Helvetica,sans-Serif" font-size="10.00">MovieList.displayMovieList</text>
</a>
</g>
</g>
<!-- Node1&#45;&gt;Node2 -->
<g id="edge1" class="edge">
<title>Node1&#45;&gt;Node2</title>
<path fill="none" stroke="midnightblue" d="M513.71,-44.95C451.43,-49.38 364.54,-55.55 305.15,-59.77"/>
<polygon fill="midnightblue" stroke="midnightblue" points="514.15,-48.43 523.88,-44.23 513.65,-41.45 514.15,-48.43"/>
</g>
<!-- Node4 -->
<g id="node4" class="node">
<title>Node4</title>
<g id="a_node4"><a xlink:href="../../da/d57/classcom_1_1tia_1_1bmm_1_1server_1_1booking_1_1_booking.html#a447864da63969714d2e23e8329af699a" target="_top" xlink:title=" ">
<polygon fill="white" stroke="black" points="345,-2.5 345,-32.5 488,-32.5 488,-2.5 345,-2.5"/>
<text text-anchor="start" x="353" y="-20.5" font-family="Helvetica,sans-Serif" font-size="10.00">com.tia.bmm.server.booking.</text>
<text text-anchor="middle" x="416.5" y="-9.5" font-family="Helvetica,sans-Serif" font-size="10.00">Booking.handleBooking</text>
</a>
</g>
</g>
<!-- Node1&#45;&gt;Node4 -->
<g id="edge3" class="edge">
<title>Node1&#45;&gt;Node4</title>
<path fill="none" stroke="midnightblue" d="M513.45,-29.7C505.05,-28.63 496.54,-27.55 488.22,-26.49"/>
<polygon fill="midnightblue" stroke="midnightblue" points="513.25,-33.2 523.61,-30.99 514.14,-26.26 513.25,-33.2"/>
</g>
<!-- Node3 -->
<g id="node3" class="node">
<title>Node3</title>
<g id="a_node3"><a xlink:href="../../d2/d9f/classcom_1_1tia_1_1bmm_1_1server_1_1main_1_1_main_menu.html#a0b053293418334fff5572487489f3029" target="_top" xlink:title=" ">
<polygon fill="white" stroke="black" points="0,-24.5 0,-54.5 130,-54.5 130,-24.5 0,-24.5"/>
<text text-anchor="start" x="8" y="-42.5" font-family="Helvetica,sans-Serif" font-size="10.00">com.tia.bmm.server.main.</text>
<text text-anchor="middle" x="65" y="-31.5" font-family="Helvetica,sans-Serif" font-size="10.00">MainMenu.main</text>
</a>
</g>
</g>
<!-- Node2&#45;&gt;Node3 -->
<g id="edge2" class="edge">
<title>Node2&#45;&gt;Node3</title>
<path fill="none" stroke="midnightblue" d="M159.48,-53.21C149.69,-51.77 139.75,-50.31 130.19,-48.91"/>
<polygon fill="midnightblue" stroke="midnightblue" points="159.2,-56.7 169.6,-54.69 160.22,-49.78 159.2,-56.7"/>
</g>
<!-- Node5 -->
<g id="node5" class="node">
<title>Node5</title>
<g id="a_node5"><a xlink:href="../../dc/da0/classcom_1_1tia_1_1bmm_1_1server_1_1booking_1_1_my_server.html#a701d447837f147cf450d6b88edb0a470" target="_top" xlink:title=" ">
<polygon fill="white" stroke="black" points="166,-0.5 166,-30.5 309,-30.5 309,-0.5 166,-0.5"/>
<text text-anchor="start" x="174" y="-18.5" font-family="Helvetica,sans-Serif" font-size="10.00">com.tia.bmm.server.booking.</text>
<text text-anchor="middle" x="237.5" y="-7.5" font-family="Helvetica,sans-Serif" font-size="10.00">MyServer.chatWithClient</text>
</a>
</g>
</g>
<!-- Node4&#45;&gt;Node5 -->
<g id="edge4" class="edge">
<title>Node4&#45;&gt;Node5</title>
<path fill="none" stroke="midnightblue" d="M334.51,-16.58C326.03,-16.49 317.46,-16.39 309.11,-16.3"/>
<polygon fill="midnightblue" stroke="midnightblue" points="334.74,-20.09 344.78,-16.7 334.82,-13.09 334.74,-20.09"/>
</g>
<!-- Node5&#45;&gt;Node3 -->
<g id="edge5" class="edge">
<title>Node5&#45;&gt;Node3</title>
<path fill="none" stroke="midnightblue" d="M155.65,-26.88C147.06,-28.09 138.42,-29.31 130.07,-30.48"/>
<polygon fill="midnightblue" stroke="midnightblue" points="156.26,-30.33 165.67,-25.47 155.28,-23.4 156.26,-30.33"/>
</g>
</g>
</svg>
        <g id="navigator" transform="translate(0 0)" fill="#404254">
                <rect fill="#f2f5e9" fill-opacity="0.5" stroke="#606060" stroke-width=".5" x="0" y="0" width="60" height="60"/>
                <use id="zoomplus" xlink:href="#zoomPlus" x="17" y="9" onmousedown="handleZoom(evt,'in')"/>
                <use id="zoomminus" xlink:href="#zoomMin" x="42" y="9" onmousedown="handleZoom(evt,'out')"/>
                <use id="reset" xlink:href="#resetDef" x="30" y="36" onmousedown="handleReset()"/>
                <g id="arrowUp" xlink:href="#dirArrow" transform="translate(30 24)" onmousedown="handlePan(0,-1)">
                  <use xlink:href="#rim" fill="#404040">
                        <set attributeName="fill" to="#808080" begin="arrowUp.mouseover" end="arrowUp.mouseout"/>
                  </use>
                  <path fill="none" stroke="white" stroke-width="1.5" d="M0,-3.0v7 M-2.5,-0.5L0,-3.0L2.5,-0.5"/>
                </g>
                <g id="arrowRight" xlink:href="#dirArrow" transform="rotate(90) translate(36 -43)" onmousedown="handlePan(1,0)">
                  <use xlink:href="#rim" fill="#404040">
                        <set attributeName="fill" to="#808080" begin="arrowRight.mouseover" end="arrowRight.mouseout"/>
                  </use>
                  <path fill="none" stroke="white" stroke-width="1.5" d="M0,-3.0v7 M-2.5,-0.5L0,-3.0L2.5,-0.5"/>
                </g>
                <g id="arrowDown" xlink:href="#dirArrow" transform="rotate(180) translate(-30 -48)" onmousedown="handlePan(0,1)">
                  <use xlink:href="#rim" fill="#404040">
                        <set attributeName="fill" to="#808080" begin="arrowDown.mouseover" end="arrowDown.mouseout"/>
                  </use>
                  <path fill="none" stroke="white" stroke-width="1.5" d="M0,-3.0v7 M-2.5,-0.5L0,-3.0L2.5,-0.5"/>
                </g>
                <g id="arrowLeft" xlink:href="#dirArrow" transform="rotate(270) translate(-36 17)" onmousedown="handlePan(-1,0)">
                  <use xlink:href="#rim" fill="#404040">
                        <set attributeName="fill" to="#808080" begin="arrowLeft.mouseover" end="arrowLeft.mouseout"/>
                  </use>
                  <path fill="none" stroke="white" stroke-width="1.5" d="M0,-3.0v7 M-2.5,-0.5L0,-3.0L2.5,-0.5"/>
                </g>
        </g>
        <svg viewBox="0 0 15 15" width="100%" height="30px" preserveAspectRatio="xMaxYMin meet">
         <g id="arrow_out" transform="scale(0.3 0.3)">
          <a xlink:href="classcom_1_1tia_1_1bmm_1_1server_1_1movie_1_1_movie_a14bfec7e511ab221f432983ad47b2846_icgraph_org.svg" target="_base">
           <rect id="button" ry="5" rx="5" y="6" x="6" height="38" width="38"
                fill="#f2f5e9" fill-opacity="0.5" stroke="#606060" stroke-width="1.0"/>
           <path id="arrow"
             d="M 11.500037,31.436501 C 11.940474,20.09759 22.043105,11.32322 32.158766,21.979434 L 37.068811,17.246167 C 37.068811,17.246167 37.088388,32 37.088388,32 L 22.160133,31.978069 C 22.160133,31.978069 26.997745,27.140456 26.997745,27.140456 C 18.528582,18.264221 13.291696,25.230495 11.500037,31.436501 z"
             style="fill:#404040;"/>
          </a>
         </g>
        </svg>
</svg>
